<?xml version="1.0" encoding="utf-8" standalone="no"?>
<!DOCTYPE svg PUBLIC "-//W3C//DTD SVG 1.1//EN"
  "http://www.w3.org/Graphics/SVG/1.1/DTD/svg11.dtd">
<!-- Created with matplotlib (http://matplotlib.org/) -->
<svg height="288pt" version="1.1" viewBox="0 0 432 288" width="432pt" xmlns="http://www.w3.org/2000/svg" xmlns:xlink="http://www.w3.org/1999/xlink">
 <defs>
  <style type="text/css">
*{stroke-linecap:butt;stroke-linejoin:round;}
  </style>
 </defs>
 <g id="figure_1">
  <g id="patch_1">
   <path d="
M0 288
L432 288
L432 0
L0 0
z
" style="fill:#ffffff;"/>
  </g>
  <g id="axes_1">
   <g id="patch_2">
    <path d="
M71.9016 239.27
L421.2 239.27
L421.2 15.3
L71.9016 15.3
z
" style="fill:#ffffff;"/>
   </g>
   <g id="line2d_1">
    <path clip-path="url(#p09fa78ea50)" d="
M71.9016 239.265
L92.911 239.191
L92.9787 239.096
L92.9787 239.152
L102.399 239.032
L116.292 238.916
L120.427 238.802
L126.729 238.571
L126.729 238.566
L126.729 238.566
L126.729 238.566
L126.729 238.616
L126.729 238.591
L128.017 238.521
L130.931 238.462
L130.931 238.388
L131.812 238.304
L131.812 238.31
L131.948 238.223
L131.948 238.245
L132.897 238.131
L132.897 238.138
L136.963 237.82
L136.963 237.825
L137.166 237.72
L138.996 237.591
L141.639 237.345
L143.74 237.2
L143.808 237.121
L143.808 237.125
L146.858 236.929
L146.858 236.935
L147.4 236.804
L147.4 236.807
L147.4 236.818
L147.4 236.818
L147.4 236.818
L148.078 236.765
L148.078 236.767
L148.078 236.774
L148.078 236.768
L148.823 236.71
L148.823 236.712
L149.026 236.594
L150.45 236.472
L150.653 236.464
L150.653 236.469
L150.924 236.267
L152.822 236.146
L154.448 235.975
L154.516 235.941
L156.075 235.757
L156.143 235.702
L158.311 235.562
L159.667 235.346
L165.021 234.763
L165.021 234.804
L165.292 234.72
L166.037 234.565
L166.037 234.567
L166.783 234.43
L166.783 234.466
L167.122 234.348
L167.867 234.249
L167.935 234.172
L167.935 234.174
L168.884 234.093
L168.884 233.824
L168.884 233.824
L168.884 233.824
L168.884 234.097
L168.884 234.097
L168.884 234.097
L168.951 233.824
L170.578 233.703
L171.188 233.494
L171.188 233.516
L171.527 233.45
L171.527 233.45
L171.527 233.475
L171.527 233.45
L171.527 233.45
L172.205 233.322
L173.289 233.102
L177.22 232.436
L177.287 232.395
L177.287 232.401
L178.778 232.114
L178.846 232.09
L178.846 232.098
L182.709 231.482
L182.777 231.439
L182.777 231.446
L183.523 231.266
L183.523 231.254
L183.523 231.254
L183.523 231.254
L183.523 231.296
L183.523 231.284
L183.523 231.284
L183.929 231.201
L184.336 231.115
L184.336 231.13
L184.539 230.925
L184.539 230.935
L184.539 230.933
L184.539 230.933
L185.42 230.593
L185.42 230.649
L185.623 230.474
L186.301 230.336
L186.843 230.191
L186.843 230.161
L186.843 230.176
L186.843 230.176
L186.843 230.208
L186.843 230.193
L186.843 230.193
L187.25 230.074
L187.25 230.103
L187.25 230.118
L187.25 230.118
L187.25 230.118
L187.318 230.059
L187.318 230.063
L189.351 229.68
L189.351 229.6
L189.351 229.648
L189.351 229.648
L189.351 229.68
L189.351 229.68
L189.351 229.68
L189.351 229.612
L189.351 229.612
L189.351 229.612
L189.351 229.694
L189.351 229.683
L190.029 229.413
L190.029 229.433
L190.029 229.45
L190.029 229.438
L190.029 229.438
L190.503 229.322
L190.977 229.201
L191.249 229.055
L191.249 229.063
L191.994 228.933
L192.265 228.771
L192.536 228.674
L192.536 228.7
L192.672 228.592
L193.214 228.455
L193.959 228.262
L193.959 228.274
L194.163 228.205
L195.383 227.862
L195.383 227.905
L195.518 227.827
L195.518 227.836
L197.348 227.318
L197.348 227.333
L197.551 227.246
L198.568 226.936
L198.568 226.973
L198.771 226.747
L203.041 225.653
L203.041 225.658
L203.041 225.669
L203.041 225.664
L203.041 225.664
L203.38 225.53
L203.38 225.542
L203.38 225.547
L203.38 225.547
L203.38 225.547
L203.448 225.522
L203.448 225.529
L205.955 224.704
L205.955 224.69
L205.955 224.69
L205.955 224.69
L205.955 224.724
L205.955 224.711
L206.362 224.539
L206.362 224.549
L206.633 224.458
L206.633 224.461
L206.633 224.469
L206.633 224.466
L206.633 224.466
L206.836 224.414
L206.836 224.424
L206.904 224.296
L206.904 224.37
L207.785 223.808
L207.785 223.816
L207.988 223.714
L208.463 223.576
L208.531 223.541
L208.531 223.557
L209.005 223.423
L209.005 223.428
L209.073 223.411
L209.276 223.066
L209.276 223.234
L209.547 223.032
L209.547 223.057
L210.022 222.947
L210.022 222.965
L210.022 222.965
L210.022 222.965
L210.225 222.761
L210.225 222.763
L210.225 222.745
L210.225 222.749
L210.225 222.749
L210.225 222.778
L210.225 222.778
L210.225 222.778
L210.225 222.739
L210.225 222.758
L210.225 222.758
L210.225 222.837
L210.225 222.805
L210.225 222.805
L210.631 222.531
L210.631 222.595
L210.631 222.571
L210.631 222.571
L210.699 222.443
L210.699 222.506
L213.342 221.693
L213.342 221.706
L213.342 221.711
L213.342 221.711
L213.342 221.711
L213.342 221.706
L213.342 221.706
L213.342 221.706
L213.342 221.715
L213.342 221.712
L213.342 221.712
L213.749 221.601
L213.749 221.621
L213.749 221.645
L213.749 221.636
L213.749 221.636
L214.223 221.41
L214.223 221.414
L214.223 221.467
L214.223 221.464
L214.223 221.464
L214.494 221.24
L214.494 221.276
L214.901 221.162
L214.901 221.165
L214.901 221.17
L214.901 221.168
L214.901 221.168
L215.782 220.986
L215.782 221.01
L215.918 220.795
L215.918 220.803
L217.205 220.468
L217.205 220.452
L217.205 220.452
L217.205 220.452
L217.205 220.483
L217.205 220.469
L217.205 220.469
L217.409 220.382
L217.68 220.304
L217.68 220.307
L217.815 219.988
L218.222 219.876
L218.222 219.909
L218.29 219.796
L218.29 219.833
L219.984 219.527
L219.984 218.66
L219.984 218.66
L219.984 218.66
L219.984 219.543
L219.984 219.531
L219.984 219.531
L220.12 218.525
L220.12 218.556
L220.391 218.41
L220.391 218.443
L220.391 218.493
L220.391 218.479
L220.391 218.479
L220.662 218.252
L220.662 218.26
L220.865 218.155
L220.865 218.165
L221.068 218.046
L221.949 217.755
L221.949 217.75
L221.949 217.753
L221.949 217.753
L221.949 217.776
L221.949 217.763
L221.949 217.763
L222.153 217.618
L222.492 217.522
L222.492 217.531
L222.966 217.322
L222.966 217.336
L222.966 217.342
L222.966 217.342
L222.966 217.342
L223.034 217.307
L223.034 217.317
L223.373 217.213
L223.373 217.215
L223.508 217.1
L223.508 217.116
L224.186 216.918
L224.186 216.827
L224.186 216.916
L224.186 216.916
L224.186 216.918
L224.186 216.918
L224.186 216.918
L224.186 216.827
L224.186 216.827
L224.186 216.827
L224.186 216.925
L224.186 216.92
L224.186 216.92
L224.389 216.775
L224.389 216.788
L224.389 216.796
L224.389 216.79
L224.389 216.79
L225.203 216.369
L225.203 216.396
L225.474 216.292
L225.88 216.158
L225.948 216.146
L226.151 216.09
L226.151 216.107
L226.422 215.958
L226.558 215.826
L226.558 215.81
L226.558 215.824
L226.558 215.824
L226.558 215.849
L226.558 215.849
L226.558 215.849
L226.558 215.763
L226.558 215.77
L226.558 215.77
L226.558 215.941
L226.558 215.886
L226.558 215.886
L226.761 215.537
L226.761 215.597
L226.897 215.517
L227.168 215.341
L227.168 215.337
L227.168 215.337
L227.168 215.337
L227.168 215.456
L227.168 215.369
L227.168 215.369
L227.71 215.099
L227.71 215.1
L228.049 214.986
L228.049 215.026
L228.388 214.826
L228.93 214.643
L228.93 214.654
L229.54 214.173
L229.54 214.193
L229.54 214.219
L229.54 214.219
L229.54 214.219
L229.608 213.971
L229.608 214.112
L229.743 213.924
L230.082 213.793
L230.082 213.818
L230.353 213.704
L230.353 213.744
L230.353 213.75
L230.353 213.75
L230.353 213.75
L230.421 213.689
L230.421 213.703
L231.031 213.167
L231.031 213.186
L231.302 213.088
L231.302 213.089
L231.302 213.098
L231.302 213.098
L231.302 213.098
L231.302 213.086
L231.302 213.086
L231.302 213.086
L231.302 213.119
L231.302 213.102
L231.302 213.102
L233.132 212.138
L233.335 211.994
L233.335 212.009
L233.606 211.886
L234.148 211.635
L234.148 211.642
L234.487 211.52
L234.758 211.416
L234.758 211.381
L234.758 211.406
L234.758 211.406
L234.758 211.43
L234.758 211.426
L234.758 211.426
L234.894 210.68
L234.894 210.699
L235.707 210.404
L235.707 210.427
L236.453 210.019
L236.656 209.926
L236.656 209.941
L236.859 209.504
L237.13 209.412
L237.13 209.441
L237.402 209.352
L237.537 209.324
L237.673 209.116
L237.673 209.125
L238.621 208.831
L238.621 208.87
L238.825 208.764
L240.316 208.261
L240.316 208.267
L240.519 208.051
L240.519 208.058
L240.79 207.968
L240.79 207.972
L242.417 207.212
L242.417 207.229
L242.756 206.723
L242.756 206.764
L242.756 206.8
L242.756 206.782
L242.756 206.782
L243.027 206.531
L243.027 206.536
L244.179 206.299
L244.179 206.219
L244.179 206.299
L244.179 206.299
L244.179 206.309
L244.179 206.3
L244.179 206.3
L244.45 205.978
L245.128 205.789
L245.128 205.812
L245.399 205.626
L245.399 205.628
L245.67 205.429
L245.67 205.379
L245.67 205.393
L245.67 205.393
L245.67 205.43
L245.67 205.43
L245.67 205.43
L245.67 205.383
L245.67 205.385
L245.67 205.385
L245.67 205.514
L245.67 205.455
L245.67 205.455
L245.873 205.285
L245.873 205.286
L246.076 205.21
L246.076 205.242
L246.28 205.015
L246.28 205.024
L246.619 204.87
L246.619 204.9
L246.822 204.756
L247.161 204.645
L247.161 204.653
L247.5 204.358
L247.5 204.541
L247.5 204.559
L247.5 204.559
L247.5 204.559
L247.567 204.328
L247.567 204.335
L248.448 204.018
L248.448 203.988
L248.448 203.988
L248.448 203.988
L248.448 204.096
L248.448 204.092
L248.448 204.092
L248.719 203.737
L248.719 203.737
L248.923 203.624
L248.923 203.628
L248.923 203.61
L248.923 203.619
L248.923 203.619
L248.923 203.632
L248.923 203.632
L248.923 203.632
L248.923 203.609
L248.923 203.621
L248.923 203.621
L248.923 203.7
L248.923 203.658
L248.923 203.658
L249.126 203.461
L249.533 203.346
L249.533 203.344
L249.533 203.344
L249.533 203.344
L249.533 203.349
L249.533 203.349
L249.533 203.349
L249.533 203.342
L249.533 203.342
L249.533 203.342
L249.533 203.354
L249.533 203.35
L249.533 203.35
L250.82 202.803
L250.82 202.812
L250.82 202.818
L250.82 202.818
L250.82 202.818
L250.888 202.773
L250.888 202.793
L251.024 202.733
L251.227 202.668
L251.227 202.71
L251.43 202.55
L251.43 202.567
L251.634 202.477
L251.634 202.478
L252.108 202.244
L252.379 202.031
L252.379 202.05
L252.854 201.841
L252.854 201.873
L252.854 201.89
L252.854 201.89
L252.854 201.89
L252.921 201.805
L252.921 201.828
L253.802 201.476
L253.802 201.155
L253.802 201.472
L253.802 201.472
L253.802 201.483
L253.802 201.477
L253.802 201.477
L253.938 201.119
L254.074 201.087
L254.074 201.104
L254.277 200.921
L254.277 200.949
L254.548 200.878
L254.548 200.888
L255.022 200.717
L255.022 200.764
L255.022 200.767
L255.022 200.767
L255.022 200.767
L255.09 200.697
L255.09 200.709
L255.632 200.37
L255.632 200.388
L255.836 200.087
L255.836 200.089
L255.971 200.063
L255.971 200.071
L256.174 199.859
L256.174 199.905
L256.446 199.792
L256.446 199.838
L256.446 199.848
L256.446 199.848
L256.446 199.848
L256.513 199.747
L256.513 199.783
L256.852 199.621
L257.937 199.178
L257.937 199.211
L258.208 199.061
L258.546 198.908
L258.546 198.933
L258.75 198.853
L259.36 198.522
L259.36 198.555
L259.36 198.588
L259.36 198.588
L259.36 198.588
L259.428 198.502
L259.428 198.511
L259.902 198.276
L259.902 198.295
L259.902 198.308
L259.902 198.302
L259.902 198.302
L261.257 197.619
L261.257 197.52
L261.257 197.582
L261.257 197.582
L261.257 197.646
L261.257 197.646
L261.257 197.646
L261.461 197.364
L261.461 197.407
L262.003 197.115
L262.003 197.116
L262.206 197.005
L262.206 197.019
L262.816 196.529
L262.816 196.568
L263.019 196.047
L263.155 195.96
L263.155 196
L263.291 195.448
L263.291 195.478
L264.036 194.926
L264.036 194.972
L264.036 195.027
L264.036 195.026
L264.036 195.026
L264.036 194.971
L264.036 194.971
L264.036 194.971
L264.036 195.036
L264.036 195.036
L264.036 195.036
L264.239 194.854
L264.239 194.862
L264.375 194.784
L264.375 194.788
L264.646 194.637
L264.646 194.651
L265.188 194.293
L265.188 194.334
L265.188 194.392
L265.188 194.385
L265.188 194.385
L265.256 194.272
L265.256 194.28
L265.663 194.106
L265.663 194.094
L265.663 194.094
L265.663 194.094
L265.663 194.171
L265.663 194.132
L265.663 194.132
L265.866 194.064
L266.069 193.951
L266.069 193.87
L266.069 193.91
L266.069 193.91
L266.069 194
L266.069 193.994
L266.069 193.994
L266.273 193.845
L266.273 193.848
L266.273 193.853
L266.273 193.851
L266.273 193.851
L266.544 193.714
L266.544 193.768
L266.882 193.483
L266.882 193.509
L266.882 193.628
L266.882 193.509
L266.882 193.509
L266.95 193.432
L266.95 193.463
L267.221 193.257
L267.221 193.26
L267.425 193.164
L267.425 193.181
L267.628 192.942
L267.628 192.96
L267.899 192.756
L267.899 192.777
L268.035 192.442
L268.035 192.442
L268.577 192.328
L268.577 192.32
L268.577 192.325
L268.577 192.325
L268.577 192.339
L268.577 192.339
L268.577 192.339
L268.848 192.174
L268.848 192.205
L269.051 191.996
L269.051 192.007
L269.39 191.864
L269.39 191.807
L269.39 191.808
L269.39 191.808
L269.39 191.902
L269.39 191.889
L269.39 191.889
L269.661 191.64
L269.864 191.572
L269.864 191.609
L270.068 191.315
L270.407 191.136
L270.407 191.112
L270.407 191.112
L270.407 191.112
L270.407 191.165
L270.407 191.156
L270.407 191.156
L270.474 191.031
L270.474 191.057
L271.22 190.615
L271.22 190.669
L271.423 190.336
L271.423 190.389
L271.694 190.222
L271.694 190.237
L271.694 190.315
L271.694 190.306
L271.694 190.306
L271.898 190.053
L271.898 190.104
L272.304 189.851
L272.304 189.805
L272.304 189.805
L272.304 189.805
L272.304 189.884
L272.304 189.884
L272.304 189.884
L272.575 189.633
L272.575 189.659
L272.575 189.785
L272.575 189.66
L272.575 189.66
L272.982 189.416
L273.253 189.215
L273.253 189.246
L273.456 189.109
L273.66 188.89
L273.66 188.92
L273.863 188.54
L273.999 188.444
L273.999 188.415
L273.999 188.436
L273.999 188.436
L273.999 188.453
L273.999 188.453
L273.999 188.453
L273.999 188.386
L273.999 188.443
L273.999 188.443
L273.999 188.474
L273.999 188.474
L273.999 188.474
L273.999 188.385
L273.999 188.385
L273.999 188.385
L273.999 188.537
L273.999 188.512
L273.999 188.512
L274.27 187.994
L274.27 188.067
L274.27 188.146
L274.27 188.129
L274.812 187.711
L275.083 187.625
L275.083 187.641
L275.422 187.488
L275.422 187.49
L275.422 187.531
L275.422 187.497
L275.422 187.497
L275.625 187.31
L275.625 187.273
L275.625 187.274
L275.625 187.274
L275.625 187.409
L275.625 187.372
L275.625 187.372
L275.761 187.182
L275.828 187.18
L276.1 186.737
L276.1 186.746
L276.845 186.334
L276.845 186.353
L276.845 186.347
L276.845 186.347
L277.048 186.168
L277.048 186.235
L277.116 186.11
L277.116 186.138
L277.523 185.962
L277.523 186
L277.658 185.728
L277.862 185.644
L277.862 185.608
L277.862 185.64
L277.862 185.64
L277.862 185.677
L277.862 185.668
L277.862 185.668
L278.065 185.436
L278.065 185.497
L278.268 185.435
L278.539 184.95
L278.539 185.014
L278.539 185.007
L278.539 185.007
L278.878 184.592
L278.878 184.551
L278.878 184.592
L278.878 184.592
L278.878 184.655
L278.878 184.64
L278.878 184.64
L279.081 184.333
L279.353 184.152
L279.353 184.065
L279.353 184.065
L279.353 184.065
L279.353 184.208
L279.353 184.164
L279.353 184.164
L279.556 183.847
L279.759 183.731
L279.759 183.769
L280.64 182.745
L280.64 182.767
L280.64 182.767
L280.64 182.767
L280.64 182.745
L280.64 182.745
L280.64 182.745
L280.64 182.798
L280.64 182.771
L280.64 182.771
L280.911 182.568
L280.911 182.57
L281.25 182.448
L281.25 182.422
L281.25 182.423
L281.25 182.423
L281.25 182.48
L281.25 182.464
L281.25 182.464
L281.589 182.258
L281.589 182.317
L281.589 182.296
L281.589 182.296
L282.606 181.312
L282.606 181.341
L286.333 178.865
L286.333 178.9
L286.333 178.922
L286.333 178.916
L286.333 178.916
L286.875 178.49
L286.875 178.51
L286.875 178.571
L286.875 178.557
L286.875 178.557
L287.079 178.355
L287.079 178.402
L288.027 177.836
L288.027 177.859
L288.027 177.868
L288.027 177.868
L288.027 177.868
L288.095 177.835
L288.299 177.726
L288.299 177.775
L288.502 177.469
L288.502 177.513
L288.908 177.273
L288.908 177.258
L288.908 177.271
L288.908 177.271
L288.908 177.304
L288.908 177.295
L288.908 177.295
L289.112 177.205
L289.112 177.209
L289.315 177.059
L289.315 177.027
L289.315 177.027
L289.315 177.027
L289.315 177.089
L289.315 177.085
L289.315 177.085
L289.722 176.791
L289.722 176.799
L290.061 176.628
L290.942 175.881
L291.077 175.83
L291.077 175.852
L291.416 175.368
L291.619 175.192
L291.619 175.265
L291.89 174.718
L292.026 174.593
L292.026 174.688
L292.162 174.296
L292.162 174.337
L293.178 173.463
L293.178 173.466
L293.178 173.533
L293.178 173.533
L293.178 173.533
L293.246 173.463
L293.585 173.333
L293.585 173.344
L293.788 173.183
L293.924 173.111
L293.924 173.129
L294.195 172.918
L294.195 172.958
L295.347 172.145
L295.347 172.063
L295.347 172.064
L295.347 172.064
L295.347 172.288
L295.347 172.184
L295.347 172.184
L295.618 171.628
L295.618 171.637
L295.957 171.504
L295.957 171.432
L295.957 171.503
L295.957 171.503
L295.957 171.505
L295.957 171.505
L295.957 171.505
L295.957 171.484
L295.957 171.484
L295.957 171.484
L295.957 171.537
L295.957 171.509
L295.957 171.509
L296.228 171.217
L296.228 171.22
L296.363 171.113
L296.363 171.19
L296.567 170.848
L296.567 170.873
L296.77 170.722
L296.77 170.725
L296.77 170.716
L296.77 170.716
L296.77 170.716
L296.77 170.845
L296.77 170.782
L296.77 170.782
L296.973 170.458
L296.973 170.476
L297.583 170.099
L297.719 170.096
L297.787 169.769
L297.787 169.932
L297.99 169.573
L297.99 169.621
L298.735 168.925
L298.735 168.86
L298.735 168.86
L298.735 168.86
L298.735 168.934
L298.735 168.934
L298.735 168.934
L298.735 168.836
L298.735 168.837
L298.735 168.837
L298.735 169.067
L298.735 169.017
L298.735 169.017
L298.939 168.631
L298.939 168.647
L298.939 168.7
L298.939 168.662
L298.939 168.662
L299.21 168.426
L299.21 168.349
L299.21 168.349
L299.21 168.349
L299.21 168.45
L299.21 168.45
L299.21 168.45
L299.21 168.297
L299.21 168.348
L299.21 168.348
L299.21 168.49
L299.21 168.482
L299.21 168.482
L299.413 168.201
L299.413 168.212
L299.752 168.071
L299.752 168.065
L299.752 168.07
L299.752 168.07
L299.752 168.107
L299.752 168.075
L299.752 168.075
L300.091 167.836
L300.091 167.899
L300.091 167.912
L300.091 167.912
L300.091 167.912
L300.43 167.571
L300.633 167.459
L300.633 167.431
L300.633 167.449
L300.633 167.449
L300.633 167.525
L300.633 167.518
L300.633 167.518
L300.904 167.196
L301.04 167.13
L301.04 167.189
L301.243 166.927
L301.243 166.963
L301.514 166.839
L301.514 166.842
L301.514 166.871
L301.514 166.864
L301.514 166.864
L301.582 166.744
L301.582 166.829
L301.853 166.405
L301.853 166.406
L302.192 166.286
L302.192 166.322
L302.463 166.127
L302.463 166.166
L302.463 166.233
L302.463 166.211
L302.463 166.211
L302.734 165.924
L302.734 165.975
L303.141 165.708
L303.141 165.722
L303.412 165.544
L303.412 165.546
L303.615 165.329
L303.615 165.369
L303.751 165.126
L303.886 165.035
L303.886 165.118
L304.089 164.632
L304.089 164.665
L304.361 164.511
L304.361 164.525
L304.361 164.576
L304.361 164.541
L304.361 164.541
L305.174 163.878
L305.174 163.88
L305.445 163.766
L305.445 163.751
L305.445 163.751
L305.445 163.751
L305.445 163.804
L305.445 163.799
L305.445 163.799
L306.665 162.876
L307.207 162.421
L307.207 162.496
L307.478 161.824
L307.478 161.929
L307.681 161.773
L307.681 161.792
L307.681 161.823
L307.681 161.811
L307.681 161.811
L307.952 161.578
L307.952 161.625
L307.952 161.649
L307.952 161.647
L307.952 161.647
L307.952 161.623
L307.952 161.642
L308.156 161.445
L308.156 161.549
L308.291 161.092
L308.291 161.124
L308.495 160.937
L308.63 160.874
L308.63 160.877
L308.63 160.804
L308.63 160.807
L308.63 160.807
L308.63 160.936
L308.63 160.89
L308.63 160.89
L308.766 160.673
L308.766 160.19
L308.766 160.191
L308.766 160.191
L308.766 160.767
L308.766 160.683
L308.766 160.683
L308.901 160.077
L308.901 160.095
L309.172 159.935
L309.172 159.888
L309.172 159.888
L309.172 159.888
L309.172 160.024
L309.172 160.016
L309.172 160.016
L309.376 159.697
L309.376 159.716
L309.782 159.488
L309.782 159.516
L309.85 159.434
L309.85 159.487
L310.257 159.265
L310.257 159.288
L310.325 159.152
L310.325 159.167
L310.596 159.014
L310.596 159.098
L310.867 158.783
L311.002 158.71
L311.002 158.767
L311.138 158.427
L311.138 158.533
L311.273 157.734
L311.273 157.773
L312.019 157.216
L312.019 157.264
L312.222 156.982
L312.222 157.02
L312.561 156.821
L312.561 156.849
L312.764 156.614
L312.764 156.615
L313.035 156.291
L313.035 156.337
L313.239 156.169
L313.51 155.987
L313.51 156.026
L313.849 155.583
L313.849 155.637
L313.849 155.776
L313.849 155.709
L313.849 155.709
L314.052 155.253
L314.052 155.294
L314.391 155.046
L314.391 154.685
L314.391 154.685
L314.391 154.685
L314.391 155.15
L314.391 155.091
L314.391 155.091
L314.594 154.421
L314.594 154.466
L314.594 154.594
L314.594 154.552
L314.594 154.552
L314.797 154.322
L314.797 154.388
L314.797 154.392
L314.797 154.392
L314.797 154.392
L314.865 154.222
L314.865 154.287
L315.136 153.811
L315.136 153.814
L315.407 153.528
L315.407 153.487
L315.407 153.49
L315.407 153.49
L315.407 153.567
L315.407 153.557
L315.814 153.175
L315.814 153.233
L316.017 152.943
L316.017 152.975
L316.221 152.85
L316.221 152.914
L316.424 152.473
L316.424 152.493
L316.898 152.02
L316.898 151.996
L316.898 151.997
L316.898 151.997
L316.898 152.203
L316.898 152.153
L316.898 152.153
L317.102 151.875
L317.102 151.882
L317.305 151.489
L317.305 151.476
L317.305 151.476
L317.305 151.476
L317.305 151.577
L317.305 151.546
L317.305 151.546
L317.373 151.411
L317.373 151.427
L317.779 151.207
L317.779 151.26
L317.915 151.087
L318.186 150.921
L318.186 150.908
L318.186 150.909
L318.186 150.909
L318.186 150.934
L318.186 150.934
L318.186 150.934
L318.186 150.903
L318.186 150.922
L318.186 150.922
L318.186 150.958
L318.186 150.928
L318.186 150.928
L318.322 150.654
L318.322 150.685
L318.796 150.167
L318.796 150.249
L318.932 150.104
L319.203 149.739
L319.203 149.659
L319.203 149.66
L319.203 149.66
L319.203 149.798
L319.203 149.779
L319.203 149.779
L319.338 149.44
L319.338 149.471
L319.474 149.438
L319.745 148.967
L319.745 148.987
L319.745 149.003
L319.745 148.996
L319.745 148.996
L320.016 148.735
L320.016 148.813
L320.016 148.852
L320.016 148.831
L320.016 148.831
L320.355 148.228
L320.49 148.156
L320.49 148.205
L320.761 147.711
L320.761 147.789
L321.304 147.202
L321.304 147.202
L321.575 147.092
L321.575 147.118
L321.846 146.902
L321.846 146.904
L321.846 146.951
L321.846 146.922
L321.846 146.922
L322.252 146.441
L322.456 146.282
L322.456 146.322
L322.659 145.884
L322.659 145.973
L323.133 145.455
L323.133 145.483
L323.337 145.399
L323.337 145.44
L323.54 144.937
L323.54 144.977
L323.811 144.839
L323.811 144.864
L323.811 144.901
L323.811 144.889
L323.811 144.889
L324.015 144.628
L324.015 144.657
L324.286 144.448
L324.286 144.491
L324.286 144.538
L324.286 144.526
L324.286 144.526
L324.624 143.999
L324.76 143.955
L324.76 143.985
L325.099 143.626
L325.099 143.629
L325.234 143.572
L325.234 143.604
L325.506 143.213
L325.506 143.286
L325.844 142.935
L325.844 142.936
L325.844 142.9
L325.844 142.9
L325.844 142.9
L325.844 143.076
L325.844 142.997
L325.844 142.997
L326.048 142.597
L326.048 142.604
L326.183 142.512
L326.183 142.54
L327.2 141.38
L327.2 141.514
L327.2 141.524
L327.2 141.524
L327.2 141.524
L327.268 141.271
L327.268 141.372
L327.471 141.101
L327.471 141.103
L327.606 140.989
L327.606 140.986
L327.606 140.986
L327.606 140.986
L327.606 141.084
L327.606 141.071
L327.606 141.071
L327.81 140.602
L327.81 140.72
L328.013 140.421
L328.013 140.463
L328.149 140.336
L328.149 140.377
L328.352 139.913
L328.352 139.959
L329.165 139.265
L329.165 139.331
L329.369 138.995
L329.436 138.992
L329.978 138.091
L329.978 138.164
L329.978 138.277
L329.978 138.25
L329.978 138.25
L330.046 137.942
L330.046 138.028
L330.317 137.57
L330.317 137.582
L330.317 137.582
L330.317 137.582
L330.521 137.467
L330.521 137.527
L330.792 137.049
L330.927 136.931
L330.927 137.005
L331.402 136.201
L331.402 136.224
L331.402 136.295
L331.402 136.23
L331.402 136.23
L331.741 135.793
L331.876 135.695
L331.876 135.777
L332.147 135.398
L332.147 135.481
L332.147 135.51
L332.147 135.508
L332.147 135.508
L332.147 135.478
L332.147 135.499
L332.147 135.499
L332.147 135.511
L332.147 135.511
L332.147 135.511
L332.351 135.292
L332.351 135.323
L332.486 135.082
L332.486 135.186
L332.622 134.902
L332.622 134.925
L332.893 134.807
L332.893 134.818
L333.164 134.532
L333.232 134.528
L333.638 133.759
L333.774 133.53
L333.774 133.677
L333.977 133.329
L333.977 133.348
L333.977 133.379
L333.977 133.365
L333.977 133.365
L334.384 132.908
L334.384 132.973
L334.587 132.728
L334.723 132.722
L334.723 132.727
L334.994 132.072
L334.994 132.398
L334.994 132.452
L334.994 132.452
L334.994 132.452
L335.061 132.065
L335.332 131.812
L335.332 131.865
L335.536 131.6
L335.536 131.607
L335.671 131.482
L335.671 131.589
L335.875 131.111
L335.875 131.157
L336.078 131.018
L336.281 130.705
L336.281 130.701
L336.281 130.701
L336.281 130.701
L336.281 130.862
L336.281 130.854
L336.281 130.854
L336.485 130.202
L336.485 130.287
L336.688 129.955
L336.688 130.047
L336.891 129.578
L336.891 129.627
L337.095 129.511
L337.095 129.541
L337.366 128.747
L337.366 128.789
L337.366 128.905
L337.366 128.804
L337.366 128.804
L338.314 127.861
L338.314 127.79
L338.314 127.79
L338.314 127.79
L338.314 127.914
L338.314 127.907
L338.314 127.907
L338.518 127.595
L338.518 127.665
L338.518 127.733
L338.518 127.716
L338.518 127.716
L338.586 127.5
L338.586 127.571
L338.789 127.155
L338.789 127.221
L338.924 127.144
L339.128 126.728
L339.128 126.79
L339.331 126.585
L339.331 126.597
L339.534 126.439
L339.534 126.473
L339.873 126.031
L340.415 125.695
L340.415 125.729
L340.415 125.734
L340.415 125.734
L340.415 125.734
L340.483 125.626
L340.483 125.67
L340.754 125.386
L340.89 125.276
L340.89 125.148
L340.89 125.149
L340.89 125.149
L340.89 125.375
L340.89 125.302
L340.89 125.302
L341.093 124.694
L341.093 124.781
L341.296 124.606
L341.296 124.609
L342.381 123.713
L342.381 123.716
L342.381 123.761
L342.381 123.753
L342.381 123.753
L342.72 123.533
L342.855 123.446
L342.855 123.493
L343.059 123.253
L343.059 123.296
L343.194 123.251
L343.465 122.656
L343.465 122.708
L343.465 122.74
L343.465 122.71
L343.465 122.71
L343.668 122.601
L343.668 122.608
L343.804 122.525
L343.804 122.557
L344.007 122.244
L344.007 122.294
L345.363 121.079
L345.363 121.122
L345.498 120.951
L345.498 120.952
L345.634 120.848
L345.634 120.868
L345.634 120.82
L345.634 120.82
L345.634 120.82
L345.634 120.944
L345.634 120.908
L345.634 120.908
L345.973 120.497
L346.108 120.462
L346.108 120.484
L346.379 119.981
L346.379 120.062
L346.583 119.905
L346.583 119.962
L346.786 118.997
L346.786 119.182
L346.786 119.292
L346.786 119.292
L346.786 119.292
L346.854 118.907
L346.854 118.967
L347.26 118.207
L347.26 118.291
L347.26 118.555
L347.26 118.555
L347.26 118.555
L347.328 118.151
L347.328 118.174
L347.532 118.033
L347.532 118.087
L347.803 117.626
L347.803 117.707
L348.074 117.501
L348.074 117.532
L348.074 117.569
L348.074 117.533
L348.074 117.533
L348.548 116.648
L348.548 116.736
L348.751 116.148
L348.751 116.162
L349.09 115.906
L349.09 115.952
L349.226 115.762
L349.226 115.785
L349.497 115.629
L349.497 115.61
L349.497 115.61
L349.497 115.61
L349.497 115.687
L349.497 115.639
L349.497 115.639
L349.768 115.214
L349.768 115.216
L349.904 115.121
L349.904 115.163
L350.039 114.897
L350.039 114.566
L350.039 114.57
L350.039 114.57
L350.039 115
L350.039 114.962
L350.039 114.962
L350.175 114.365
L350.175 114.493
L350.378 114.275
L350.378 114.294
L350.378 114.345
L350.378 114.315
L350.378 114.315
L350.446 114.233
L350.446 114.273
L350.649 113.908
L350.649 114.041
L351.327 113.403
L351.327 113.442
L351.327 113.506
L351.327 113.504
L351.327 113.504
L351.395 113.354
L351.395 113.399
L351.666 113.146
L352.276 112.772
L352.276 112.695
L352.276 112.696
L352.276 112.696
L352.276 112.845
L352.276 112.818
L352.276 112.818
L352.547 112.24
L352.547 112.319
L352.547 112.378
L352.547 112.376
L352.547 112.376
L352.614 112.235
L352.614 112.237
L352.818 112.168
L352.818 112.215
L353.089 111.781
L353.224 111.655
L353.224 111.652
L353.224 111.652
L353.224 111.652
L353.224 111.685
L353.224 111.685
L353.224 111.685
L353.224 111.652
L353.224 111.652
L353.224 111.652
L353.224 111.769
L353.224 111.697
L353.224 111.697
L353.495 111.288
L353.495 111.367
L353.834 111.036
L353.834 111.152
L353.834 111.143
L353.834 111.143
L353.97 110.953
L353.97 110.981
L354.309 110.794
L354.309 110.809
L356.071 109.212
L356.071 109.326
L356.274 108.783
L356.274 108.853
L356.477 108.667
L356.477 108.67
L356.477 108.676
L356.477 108.674
L356.477 108.674
L356.613 108.451
L356.613 108.506
L356.749 107.741
L356.749 107.831
L356.952 107.714
L356.952 107.719
L357.63 107.046
L357.63 107.055
L357.63 107.025
L357.63 107.025
L357.63 107.025
L357.63 107.13
L357.63 107.093
L357.63 107.093
L357.833 106.841
L357.833 106.844
L357.968 106.798
L357.968 106.825
L358.24 106.244
L358.24 106.271
L358.443 106.15
L358.443 106.222
L358.646 105.75
L358.646 105.855
L358.849 105.617
L359.256 105.173
L359.459 104.999
L359.459 104.947
L359.459 104.975
L359.459 104.975
L359.459 105.121
L359.459 105.091
L359.459 105.091
L359.663 104.751
L359.798 104.719
L360.34 103.917
L360.34 103.941
L360.34 103.999
L360.34 103.985
L360.34 103.985
L360.544 103.473
L360.544 103.497
L360.544 103.616
L360.544 103.502
L360.544 103.502
L360.815 103.277
L360.815 103.289
L360.815 103.392
L360.815 103.367
L360.815 103.367
L361.086 103.012
L361.086 103.059
L361.086 103.065
L361.086 103.065
L361.086 103.065
L361.154 103.006
L361.357 102.687
L361.357 102.622
L361.357 102.622
L361.357 102.622
L361.357 102.758
L361.357 102.746
L361.357 102.746
L361.56 102.339
L361.56 102.432
L361.831 102.232
L361.831 102.276
L362.035 101.921
L362.035 101.956
L362.306 101.766
L362.306 101.767
L362.306 101.759
L362.306 101.759
L362.306 101.759
L362.306 101.833
L362.306 101.824
L362.306 101.824
L362.509 101.546
L362.509 101.577
L362.78 101.4
L362.78 101.413
L362.78 101.387
L362.78 101.398
L362.78 101.398
L362.78 101.463
L362.78 101.434
L362.78 101.434
L363.322 100.854
L363.322 100.894
L363.322 100.952
L363.322 100.905
L363.322 100.905
L363.458 100.436
L363.458 100.518
L363.661 100.293
L363.661 100.378
L364.068 99.5724
L364.271 99.4203
L364.271 99.394
L364.271 99.394
L364.271 99.394
L364.271 99.4982
L364.271 99.4807
L364.271 99.4807
L364.407 99.2252
L364.407 99.274
L364.678 99.068
L364.678 99.1267
L365.085 98.5264
L365.085 98.5802
L365.085 98.9491
L365.085 98.5889
L365.085 98.5889
L365.288 97.8153
L365.288 97.8613
L365.288 97.9849
L365.288 97.9811
L365.288 97.9811
L365.356 97.7596
L365.356 97.8
L366.101 97.2331
L366.101 97.2504
L366.508 96.8983
L366.508 96.9215
L366.508 96.9256
L366.508 96.9256
L366.508 96.9256
L366.508 96.8988
L366.508 96.8988
L366.508 96.8988
L366.508 96.9404
L366.508 96.9263
L366.508 96.9263
L366.847 96.541
L366.847 96.5449
L367.321 96.399
L367.321 96.4064
L368.202 95.6448
L368.202 95.6259
L368.202 95.6259
L368.202 95.6259
L368.202 95.7257
L368.202 95.7008
L368.541 95.3608
L368.541 95.3416
L368.541 95.3416
L368.541 95.3416
L368.541 95.4161
L368.541 95.4102
L368.541 95.4102
L368.676 95.088
L368.676 95.2352
L369.151 94.7416
L369.151 94.7358
L369.151 94.7358
L369.151 94.7358
L369.151 94.8576
L369.151 94.818
L369.151 94.818
L369.829 94.0976
L369.829 94.1141
L369.829 94.1487
L369.829 94.1274
L369.829 94.1274
L370.032 93.7727
L370.032 93.8001
L370.1 93.646
L370.1 93.75
L370.506 93.2841
L370.506 93.3246
L370.71 93.2096
L370.913 93.0705
L370.913 93.0615
L370.913 93.069
L370.913 93.069
L370.913 93.1316
L370.913 93.081
L370.913 93.081
L371.116 92.8382
L371.116 92.8598
L371.387 92.5153
L371.387 92.458
L371.387 92.5058
L371.387 92.5058
L371.387 92.6075
L371.387 92.5871
L371.387 92.5871
L371.658 92.1133
L371.658 92.1163
L371.794 91.8765
L371.794 91.9738
L371.794 91.8069
L371.794 91.8073
L371.794 91.8073
L371.794 92.0292
L371.794 91.9871
L371.794 91.9871
L371.997 91.6084
L371.997 91.6305
L372.268 91.4682
L372.268 91.4692
L372.268 91.334
L372.268 91.4572
L372.268 91.4572
L372.268 91.5219
L372.268 91.5085
L372.268 91.5085
L372.472 91.031
L372.472 91.094
L372.743 90.8749
L372.743 90.9197
L372.946 90.6109
L372.946 90.6462
L373.149 90.355
L373.149 90.3333
L373.149 90.3333
L373.149 90.3333
L373.149 90.553
L373.149 90.4155
L373.149 90.4155
L373.353 89.8923
L373.353 89.9805
L373.488 89.7323
L373.488 89.7405
L373.556 89.728
L373.895 88.9312
L373.895 88.9832
L374.166 88.5778
L374.166 88.5549
L374.166 88.5549
L374.166 88.5549
L374.166 88.5828
L374.166 88.5828
L374.166 88.5828
L374.166 88.5546
L374.166 88.5568
L374.166 88.5568
L374.166 88.7019
L374.166 88.5934
L374.166 88.5934
L374.505 88.2777
L374.776 87.8833
L374.776 87.8879
L374.776 87.8713
L374.776 87.8713
L374.776 87.8713
L374.776 87.8947
L374.776 87.8871
L374.776 87.8871
L374.776 87.8325
L374.776 87.8325
L374.776 87.8325
L374.776 87.9002
L374.776 87.9002
L374.776 87.9002
L374.776 87.831
L374.776 87.8651
L374.776 87.8651
L374.776 87.973
L374.776 87.9222
L374.776 87.9222
L374.979 87.7602
L374.979 87.7626
L375.386 87.419
L375.386 87.4208
L375.521 87.3243
L375.521 87.3695
L375.793 87.037
L375.793 87.0639
L375.996 86.9779
L375.996 87.0023
L376.064 86.7566
L376.064 86.875
L376.064 86.415
L376.064 86.415
L376.064 86.415
L376.064 86.9778
L376.064 86.8977
L376.064 86.8977
L376.199 86.2209
L376.199 86.2638
L376.47 86.064
L376.47 86.1219
L376.47 86.1644
L376.47 86.1407
L376.47 86.1407
L376.741 85.5338
L376.741 85.6184
L377.487 84.7241
L377.487 84.7559
L377.487 84.822
L377.487 84.8031
L377.487 84.8031
L377.893 84.1611
L377.893 84.1906
L377.893 84.3022
L377.893 84.273
L377.893 84.273
L378.232 83.7671
L378.3 83.7641
L378.3 83.7666
L378.503 82.5436
L378.503 82.6226
L378.842 81.9718
L378.842 82.1524
L378.842 82.2421
L378.842 82.2389
L378.842 82.2389
L378.91 81.8696
L378.91 81.9499
L379.317 81.1061
L379.317 81.144
L379.52 80.823
L379.52 80.6558
L379.52 80.6558
L379.52 80.6558
L379.52 80.871
L379.52 80.8561
L379.52 80.8561
L379.723 80.4161
L380.401 79.583
L380.401 79.5732
L380.401 79.582
L380.401 79.582
L380.401 79.5995
L380.401 79.5995
L380.401 79.5995
L380.401 79.4685
L380.401 79.4868
L380.401 79.4868
L380.401 79.7211
L380.401 79.6284
L380.401 79.6284
L380.537 79.3146
L380.537 79.3386
L380.74 79.2107
L380.74 79.2418
L380.808 79.0772
L380.808 79.1914
L381.011 78.1174
L381.011 78.1787
L381.35 77.9013
L381.35 77.8777
L381.35 77.882
L381.35 77.882
L381.35 77.9556
L381.35 77.9389
L381.35 77.9389
L381.621 77.6322
L381.621 77.6394
L381.757 77.4378
L381.757 77.5284
L382.028 77.0935
L382.163 77.0365
L382.163 77.0759
L382.638 76.4649
L382.638 76.4801
L382.638 76.4766
L382.638 76.4766
L382.638 76.4501
L382.638 76.4556
L382.638 76.4556
L382.638 76.5134
L382.638 76.4984
L382.638 76.4984
L382.909 75.9922
L382.909 76.0437
L383.112 75.8092
L383.112 75.8622
L383.383 75.3931
L383.383 75.44
L383.654 75.1511
L383.654 75.2957
L383.857 74.7665
L383.857 74.8316
L384.129 74.4208
L384.129 74.4107
L384.129 74.4122
L384.129 74.4122
L384.129 74.7575
L384.129 74.7253
L384.129 74.7253
L384.332 74.0794
L384.332 74.1647
L384.332 74.219
L384.332 74.218
L384.332 74.218
L384.332 74.1638
L384.332 74.1993
L384.671 73.7264
L384.671 73.8529
L384.806 73.4418
L384.806 73.4953
L385.01 73.2923
L385.01 73.2925
L385.01 73.2738
L385.01 73.2746
L385.01 73.2746
L385.01 73.3917
L385.01 73.356
L385.01 73.356
L385.348 72.6954
L385.348 72.7016
L385.552 72.5074
L385.552 72.4776
L385.552 72.4776
L385.552 72.4776
L385.552 72.5875
L385.552 72.5486
L385.552 72.5486
L385.755 72.2874
L385.755 72.3511
L386.094 71.9636
L386.094 72.0192
L387.178 71.7556
L387.178 71.7644
L387.178 71.6885
L387.178 71.6885
L387.178 71.6885
L387.178 71.8428
L387.178 71.7884
L387.449 71.4882
L387.449 71.5368
L387.72 71.083
L387.72 71.0838
L387.788 71.0803
L387.788 71.0828
L388.195 70.3681
L388.195 70.3711
L388.466 70.0087
L388.466 69.9887
L388.466 69.9887
L388.466 69.9887
L388.466 70.1167
L388.466 70.1007
L388.466 70.1007
L388.669 69.8162
L388.873 69.7258
L388.873 69.699
L388.873 69.7
L388.873 69.7
L388.873 69.7957
L388.873 69.7723
L388.873 69.7723
L389.144 69.2061
L389.279 69.1076
L389.279 69.1569
L389.347 68.7856
L389.347 69.0872
L389.483 68.1036
L389.483 68.1691
L389.686 68.0055
L390.16 67.5972
L390.16 67.6187
L390.16 67.6199
L390.16 67.6199
L390.16 67.6199
L390.228 67.5158
L390.228 67.5657
L390.635 67.0102
L390.77 66.7612
L390.77 66.7844
L390.77 66.4078
L390.77 66.4109
L390.77 66.4109
L390.77 66.9412
L390.77 66.9234
L390.77 66.9234
L390.906 66.1766
L390.906 66.2553
L391.109 66.0927
L391.109 66.0965
L391.177 66.03
L391.177 65.73
L391.177 65.73
L391.177 65.73
L391.177 66.0888
L391.177 66.073
L391.177 66.073
L391.38 65.3872
L391.38 65.4584
L391.651 65.1547
L391.651 65.2352
L391.651 65.3319
L391.651 65.3299
L391.651 65.3299
L391.719 65.0636
L391.719 65.138
L392.126 64.9316
L392.126 64.9714
L392.126 64.9727
L392.126 64.9727
L392.126 64.9727
L392.193 64.8701
L392.193 64.8798
L392.736 64.5052
L392.736 64.4891
L392.736 64.4896
L392.736 64.4896
L392.736 64.5165
L392.736 64.5165
L392.736 64.5165
L392.736 64.4871
L392.736 64.5029
L392.736 64.5029
L392.736 64.5557
L392.736 64.5222
L392.736 64.5222
L393.074 64.0967
L393.074 64.1285
L393.074 64.1665
L393.074 64.1484
L393.074 64.1484
L393.617 63.5527
L393.617 63.6011
L393.617 63.6842
L393.617 63.6333
L393.617 63.6333
L393.82 63.2563
L393.82 63.3033
L393.956 63.2551
L394.294 62.5306
L394.294 62.5774
L394.498 62.4735
L394.498 62.501
L394.769 61.9448
L394.769 61.9732
L394.972 61.8218
L394.972 61.798
L394.972 61.801
L394.972 61.801
L394.972 61.9344
L394.972 61.9137
L394.972 61.9137
L395.243 61.4003
L395.243 61.4538
L395.989 60.7854
L395.989 60.8515
L396.192 60.4689
L396.192 60.5096
L396.531 60.1638
L396.531 60.1675
L396.531 60.1302
L396.531 60.1324
L396.531 60.1324
L396.531 60.2547
L396.531 60.2398
L396.531 60.2398
L396.734 59.9323
L396.802 59.9308
L396.802 59.9316
L397.005 59.4096
L397.005 59.4193
L397.005 59.4101
L397.005 59.4101
L397.005 59.3898
L397.005 59.3898
L397.005 59.3898
L397.005 59.4519
L397.005 59.4432
L397.005 59.4432
L397.141 59.2365
L397.141 59.2589
L397.412 59.1056
L397.412 59.1369
L397.547 58.1018
L397.547 58.1263
L397.683 57.9603
L397.683 57.9618
L397.886 57.8167
L397.886 57.866
L398.157 57.5137
L398.157 57.5339
L398.903 56.7978
L398.903 56.8099
L399.174 56.6053
L399.784 56.2702
L399.784 56.2982
L400.055 55.987
L400.055 56.0009
L400.597 55.7402
L400.597 55.7422
L401.139 54.5727
L401.139 54.9756
L401.139 54.9637
L401.139 54.9637
L401.275 54.3739
L401.275 54.4286
L401.614 53.8018
L401.614 54.0992
L401.614 54.2382
L401.614 54.2382
L401.614 54.2382
L401.682 52.7682
L401.682 53.4854
L401.817 52.5604
L401.817 52.6177
L402.02 52.3961
L402.156 52.3264
L402.156 52.3841
L402.359 52.099
L402.359 52.1256
L402.63 51.9335
L402.63 51.9665
L402.834 51.5814
L402.834 51.6109
L403.105 51.3968
L403.105 51.3971
L403.105 51.2674
L403.105 51.2674
L403.105 51.2674
L403.105 51.5066
L403.105 51.4983
L403.105 51.4983
L403.308 51.07
L403.308 51.1108
L403.715 50.7692
L403.715 50.8084
L403.85 50.5672
L404.121 50.4569
L404.121 50.4452
L404.121 50.4562
L404.121 50.4562
L404.121 50.4896
L404.121 50.4592
L404.121 50.4592
L404.664 49.9206
L404.664 49.9229
L404.664 49.8671
L404.664 49.8951
L404.664 49.8951
L404.664 49.931
L404.664 49.931
L404.664 49.931
L404.664 49.8572
L404.664 49.8987
L404.664 49.8987
L404.664 50.0499
L404.664 49.9342
L405.409 48.9627
L405.409 48.9953
L405.409 49.0296
L405.409 49.0101
L405.409 49.0101
L405.68 48.7287
L405.68 48.7423
L405.951 48.583
L405.951 48.6379
L406.155 48.236
L406.155 48.2564
L406.358 48.1711
L406.358 48.2211
L406.426 47.8999
L406.426 48.1363
L406.561 44.7533
L406.561 44.7882
L406.832 44.6595
L406.832 44.6755
L406.832 44.6876
L406.832 44.6816
L406.832 44.6816
L407.103 44.2311
L407.103 44.2435
L407.103 43.9597
L407.103 43.9597
L407.103 43.9597
L407.103 44.4285
L407.103 44.4131
L407.103 44.4131
L407.239 43.9396
L407.239 43.9455
L407.307 43.8731
L407.307 43.9194
L407.51 42.9874
L407.51 43.0244
L407.781 42.9052
L407.781 42.9411
L407.781 42.9486
L407.781 42.9486
L407.781 42.9486
L407.849 42.8887
L407.849 42.9008
L408.323 42.3343
L408.323 42.3011
L408.323 42.3258
L408.323 42.3258
L408.323 42.512
L408.323 42.474
L408.323 42.474
L408.459 41.8027
L408.459 41.8593
L408.527 41.7279
L408.527 41.7384
L408.798 41.6631
L408.798 41.7039
L409.069 41.3324
L409.204 41.28
L409.204 41.3248
L409.408 40.9785
L409.408 41.0654
L409.408 41.0856
L409.408 41.0814
L409.408 41.0814
L409.475 40.9289
L409.475 40.9545
L409.814 40.6857
L409.814 40.623
L409.814 40.6258
L409.814 40.6258
L409.814 40.7339
L409.814 40.7287
L409.814 40.7287
L410.018 40.5663
L410.018 40.5677
L410.221 40.3539
L410.221 40.3391
L410.221 40.3391
L410.221 40.3391
L410.221 40.4919
L410.221 40.3866
L410.221 40.3866
L410.356 40.1325
L410.356 40.2889
L410.492 39.9631
L410.695 39.8562
L410.695 39.8628
L410.695 39.8001
L410.695 39.8023
L410.695 39.8023
L410.695 39.9127
L410.695 39.9043
L410.695 39.9043
L410.899 39.6536
L410.899 39.6809
L411.17 39.5057
L411.17 39.561
L411.373 39.22
L411.373 39.26
L412.322 38.5559
L412.322 38.5491
L412.322 38.5491
L412.322 38.5491
L412.322 38.5992
L412.322 38.5786
L412.661 38.4363
L412.661 38.464
L412.796 38.2914
L412.796 38.3128
L413.135 38.1652
L413.135 38.1936
L413.271 37.955
L413.271 37.9921
L413.474 37.8849
L413.474 37.9425
L413.677 37.6025
L413.677 37.6257
L413.948 37.4618
L413.948 37.4857
L413.948 37.5563
L413.948 37.5191
L413.948 37.5191
L414.152 37.1903
L414.152 37.2077
L414.152 37.2487
L414.152 37.2487
L414.152 37.2487
L414.355 37.143
L414.897 36.9712
L414.897 36.9593
L414.897 36.9641
L414.897 36.9641
L414.897 37.0115
L414.897 36.9937
L414.897 36.9937
L415.372 36.6958
L415.372 36.7106
L415.372 36.7266
L415.372 36.7207
L415.372 36.7207
L416.253 36.2313
L416.253 36.2348
L417.337 35.9342
L417.337 36.0048
L417.473 35.622
L417.473 35.6492
L418.082 35.346
L418.354 35.2649
L418.354 35.306
L418.489 35.0682
L418.489 35.0932
L419.845 34.6617
L419.845 34.6683
L420.319 34.5417
L420.319 34.5682
L420.387 34.4166
L420.387 34.5101
L420.861 34.3315
L420.861 34.3648
L421.2 34.2961
L421.2 34.2961" style="fill:none;stroke:#0000ff;stroke-linecap:square;"/>
   </g>
   <g id="patch_3">
    <path d="
M71.9016 15.3
L421.2 15.3" style="fill:none;stroke:#000000;stroke-linecap:square;stroke-linejoin:miter;"/>
   </g>
   <g id="patch_4">
    <path d="
M421.2 239.27
L421.2 15.3" style="fill:none;stroke:#000000;stroke-linecap:square;stroke-linejoin:miter;"/>
   </g>
   <g id="patch_5">
    <path d="
M71.9016 239.27
L421.2 239.27" style="fill:none;stroke:#000000;stroke-linecap:square;stroke-linejoin:miter;"/>
   </g>
   <g id="patch_6">
    <path d="
M71.9016 239.27
L71.9016 15.3" style="fill:none;stroke:#000000;stroke-linecap:square;stroke-linejoin:miter;"/>
   </g>
   <g id="matplotlib.axis_1">
    <g id="xtick_1">
     <g id="line2d_2">
      <path clip-path="url(#p09fa78ea50)" d="
M95.2152 239.27
L95.2152 15.3" style="fill:none;stroke:#000000;stroke-dasharray:1.000000,3.000000;stroke-dashoffset:0.0;stroke-width:0.5;"/>
     </g>
     <g id="line2d_3">
      <defs>
       <path d="
M0 0
L0 -4" id="m93b0483c22" style="stroke:#000000;stroke-width:0.5;"/>
      </defs>
      <g>
       <use style="stroke:#000000;stroke-width:0.5;" x="95.2152339203" xlink:href="#m93b0483c22" y="239.269833866"/>
      </g>
     </g>
     <g id="line2d_4">
      <defs>
       <path d="
M0 0
L0 4" id="m741efc42ff" style="stroke:#000000;stroke-width:0.5;"/>
      </defs>
      <g>
       <use style="stroke:#000000;stroke-width:0.5;" x="95.2152339203" xlink:href="#m741efc42ff" y="15.3"/>
      </g>
     </g>
     <g id="text_1">
      <!-- 2002 -->
      <defs>
       <path d="
M19.1875 8.29688
L53.6094 8.29688
L53.6094 0
L7.32812 0
L7.32812 8.29688
Q12.9375 14.1094 22.625 23.8906
Q32.3281 33.6875 34.8125 36.5312
Q39.5469 41.8438 41.4219 45.5312
Q43.3125 49.2188 43.3125 52.7812
Q43.3125 58.5938 39.2344 62.25
Q35.1562 65.9219 28.6094 65.9219
Q23.9688 65.9219 18.8125 64.3125
Q13.6719 62.7031 7.8125 59.4219
L7.8125 69.3906
Q13.7656 71.7812 18.9375 73
Q24.125 74.2188 28.4219 74.2188
Q39.75 74.2188 46.4844 68.5469
Q53.2188 62.8906 53.2188 53.4219
Q53.2188 48.9219 51.5312 44.8906
Q49.8594 40.875 45.4062 35.4062
Q44.1875 33.9844 37.6406 27.2188
Q31.1094 20.4531 19.1875 8.29688" id="BitstreamVeraSans-Roman-32"/>
       <path d="
M31.7812 66.4062
Q24.1719 66.4062 20.3281 58.9062
Q16.5 51.4219 16.5 36.375
Q16.5 21.3906 20.3281 13.8906
Q24.1719 6.39062 31.7812 6.39062
Q39.4531 6.39062 43.2812 13.8906
Q47.125 21.3906 47.125 36.375
Q47.125 51.4219 43.2812 58.9062
Q39.4531 66.4062 31.7812 66.4062
M31.7812 74.2188
Q44.0469 74.2188 50.5156 64.5156
Q56.9844 54.8281 56.9844 36.375
Q56.9844 17.9688 50.5156 8.26562
Q44.0469 -1.42188 31.7812 -1.42188
Q19.5312 -1.42188 13.0625 8.26562
Q6.59375 17.9688 6.59375 36.375
Q6.59375 54.8281 13.0625 64.5156
Q19.5312 74.2188 31.7812 74.2188" id="BitstreamVeraSans-Roman-30"/>
      </defs>
      <g transform="translate(73.6370564536 261.70808627)rotate(-30.0)scale(0.1 -0.1)">
       <use xlink:href="#BitstreamVeraSans-Roman-32"/>
       <use x="63.623046875" xlink:href="#BitstreamVeraSans-Roman-30"/>
       <use x="127.24609375" xlink:href="#BitstreamVeraSans-Roman-30"/>
       <use x="190.869140625" xlink:href="#BitstreamVeraSans-Roman-32"/>
      </g>
     </g>
    </g>
    <g id="xtick_2">
     <g id="line2d_5">
      <path clip-path="url(#p09fa78ea50)" d="
M144.689 239.27
L144.689 15.3" style="fill:none;stroke:#000000;stroke-dasharray:1.000000,3.000000;stroke-dashoffset:0.0;stroke-width:0.5;"/>
     </g>
     <g id="line2d_6">
      <g>
       <use style="stroke:#000000;stroke-width:0.5;" x="144.689013388" xlink:href="#m93b0483c22" y="239.269833866"/>
      </g>
     </g>
     <g id="line2d_7">
      <g>
       <use style="stroke:#000000;stroke-width:0.5;" x="144.689013388" xlink:href="#m741efc42ff" y="15.3"/>
      </g>
     </g>
     <g id="text_2">
      <!-- 2004 -->
      <defs>
       <path d="
M37.7969 64.3125
L12.8906 25.3906
L37.7969 25.3906
z

M35.2031 72.9062
L47.6094 72.9062
L47.6094 25.3906
L58.0156 25.3906
L58.0156 17.1875
L47.6094 17.1875
L47.6094 0
L37.7969 0
L37.7969 17.1875
L4.89062 17.1875
L4.89062 26.7031
z
" id="BitstreamVeraSans-Roman-34"/>
      </defs>
      <g transform="translate(122.729243477 261.92839877)rotate(-30.0)scale(0.1 -0.1)">
       <use xlink:href="#BitstreamVeraSans-Roman-32"/>
       <use x="63.623046875" xlink:href="#BitstreamVeraSans-Roman-30"/>
       <use x="127.24609375" xlink:href="#BitstreamVeraSans-Roman-30"/>
       <use x="190.869140625" xlink:href="#BitstreamVeraSans-Roman-34"/>
      </g>
     </g>
    </g>
    <g id="xtick_3">
     <g id="line2d_8">
      <path clip-path="url(#p09fa78ea50)" d="
M194.231 239.27
L194.231 15.3" style="fill:none;stroke:#000000;stroke-dasharray:1.000000,3.000000;stroke-dashoffset:0.0;stroke-width:0.5;"/>
     </g>
     <g id="line2d_9">
      <g>
       <use style="stroke:#000000;stroke-width:0.5;" x="194.230565156" xlink:href="#m93b0483c22" y="239.269833866"/>
      </g>
     </g>
     <g id="line2d_10">
      <g>
       <use style="stroke:#000000;stroke-width:0.5;" x="194.230565156" xlink:href="#m741efc42ff" y="15.3"/>
      </g>
     </g>
     <g id="text_3">
      <!-- 2006 -->
      <defs>
       <path d="
M33.0156 40.375
Q26.375 40.375 22.4844 35.8281
Q18.6094 31.2969 18.6094 23.3906
Q18.6094 15.5312 22.4844 10.9531
Q26.375 6.39062 33.0156 6.39062
Q39.6562 6.39062 43.5312 10.9531
Q47.4062 15.5312 47.4062 23.3906
Q47.4062 31.2969 43.5312 35.8281
Q39.6562 40.375 33.0156 40.375
M52.5938 71.2969
L52.5938 62.3125
Q48.875 64.0625 45.0938 64.9844
Q41.3125 65.9219 37.5938 65.9219
Q27.8281 65.9219 22.6719 59.3281
Q17.5312 52.7344 16.7969 39.4062
Q19.6719 43.6562 24.0156 45.9219
Q28.375 48.1875 33.5938 48.1875
Q44.5781 48.1875 50.9531 41.5156
Q57.3281 34.8594 57.3281 23.3906
Q57.3281 12.1562 50.6875 5.35938
Q44.0469 -1.42188 33.0156 -1.42188
Q20.3594 -1.42188 13.6719 8.26562
Q6.98438 17.9688 6.98438 36.375
Q6.98438 53.6562 15.1875 63.9375
Q23.3906 74.2188 37.2031 74.2188
Q40.9219 74.2188 44.7031 73.4844
Q48.4844 72.75 52.5938 71.2969" id="BitstreamVeraSans-Roman-36"/>
      </defs>
      <g transform="translate(172.330334492 261.89402377)rotate(-30.0)scale(0.1 -0.1)">
       <use xlink:href="#BitstreamVeraSans-Roman-32"/>
       <use x="63.623046875" xlink:href="#BitstreamVeraSans-Roman-30"/>
       <use x="127.24609375" xlink:href="#BitstreamVeraSans-Roman-30"/>
       <use x="190.869140625" xlink:href="#BitstreamVeraSans-Roman-36"/>
      </g>
     </g>
    </g>
    <g id="xtick_4">
     <g id="line2d_11">
      <path clip-path="url(#p09fa78ea50)" d="
M243.704 239.27
L243.704 15.3" style="fill:none;stroke:#000000;stroke-dasharray:1.000000,3.000000;stroke-dashoffset:0.0;stroke-width:0.5;"/>
     </g>
     <g id="line2d_12">
      <g>
       <use style="stroke:#000000;stroke-width:0.5;" x="243.704344623" xlink:href="#m93b0483c22" y="239.269833866"/>
      </g>
     </g>
     <g id="line2d_13">
      <g>
       <use style="stroke:#000000;stroke-width:0.5;" x="243.704344623" xlink:href="#m741efc42ff" y="15.3"/>
      </g>
     </g>
     <g id="text_4">
      <!-- 2008 -->
      <defs>
       <path d="
M31.7812 34.625
Q24.75 34.625 20.7188 30.8594
Q16.7031 27.0938 16.7031 20.5156
Q16.7031 13.9219 20.7188 10.1562
Q24.75 6.39062 31.7812 6.39062
Q38.8125 6.39062 42.8594 10.1719
Q46.9219 13.9688 46.9219 20.5156
Q46.9219 27.0938 42.8906 30.8594
Q38.875 34.625 31.7812 34.625
M21.9219 38.8125
Q15.5781 40.375 12.0312 44.7188
Q8.5 49.0781 8.5 55.3281
Q8.5 64.0625 14.7188 69.1406
Q20.9531 74.2188 31.7812 74.2188
Q42.6719 74.2188 48.875 69.1406
Q55.0781 64.0625 55.0781 55.3281
Q55.0781 49.0781 51.5312 44.7188
Q48 40.375 41.7031 38.8125
Q48.8281 37.1562 52.7969 32.3125
Q56.7812 27.4844 56.7812 20.5156
Q56.7812 9.90625 50.3125 4.23438
Q43.8438 -1.42188 31.7812 -1.42188
Q19.7344 -1.42188 13.25 4.23438
Q6.78125 9.90625 6.78125 20.5156
Q6.78125 27.4844 10.7812 32.3125
Q14.7969 37.1562 21.9219 38.8125
M18.3125 54.3906
Q18.3125 48.7344 21.8438 45.5625
Q25.3906 42.3906 31.7812 42.3906
Q38.1406 42.3906 41.7188 45.5625
Q45.3125 48.7344 45.3125 54.3906
Q45.3125 60.0625 41.7188 63.2344
Q38.1406 66.4062 31.7812 66.4062
Q25.3906 66.4062 21.8438 63.2344
Q18.3125 60.0625 18.3125 54.3906" id="BitstreamVeraSans-Roman-38"/>
      </defs>
      <g transform="translate(221.851474724 261.86668002)rotate(-30.0)scale(0.1 -0.1)">
       <use xlink:href="#BitstreamVeraSans-Roman-32"/>
       <use x="63.623046875" xlink:href="#BitstreamVeraSans-Roman-30"/>
       <use x="127.24609375" xlink:href="#BitstreamVeraSans-Roman-30"/>
       <use x="190.869140625" xlink:href="#BitstreamVeraSans-Roman-38"/>
      </g>
     </g>
    </g>
    <g id="xtick_5">
     <g id="line2d_14">
      <path clip-path="url(#p09fa78ea50)" d="
M293.246 239.27
L293.246 15.3" style="fill:none;stroke:#000000;stroke-dasharray:1.000000,3.000000;stroke-dashoffset:0.0;stroke-width:0.5;"/>
     </g>
     <g id="line2d_15">
      <g>
       <use style="stroke:#000000;stroke-width:0.5;" x="293.245896391" xlink:href="#m93b0483c22" y="239.269833866"/>
      </g>
     </g>
     <g id="line2d_16">
      <g>
       <use style="stroke:#000000;stroke-width:0.5;" x="293.245896391" xlink:href="#m741efc42ff" y="15.3"/>
      </g>
     </g>
     <g id="text_5">
      <!-- 2010 -->
      <defs>
       <path d="
M12.4062 8.29688
L28.5156 8.29688
L28.5156 63.9219
L10.9844 60.4062
L10.9844 69.3906
L28.4219 72.9062
L38.2812 72.9062
L38.2812 8.29688
L54.3906 8.29688
L54.3906 0
L12.4062 0
z
" id="BitstreamVeraSans-Roman-31"/>
      </defs>
      <g transform="translate(271.375435351 261.87683627)rotate(-30.0)scale(0.1 -0.1)">
       <use xlink:href="#BitstreamVeraSans-Roman-32"/>
       <use x="63.623046875" xlink:href="#BitstreamVeraSans-Roman-30"/>
       <use x="127.24609375" xlink:href="#BitstreamVeraSans-Roman-31"/>
       <use x="190.869140625" xlink:href="#BitstreamVeraSans-Roman-30"/>
      </g>
     </g>
    </g>
    <g id="xtick_6">
     <g id="line2d_17">
      <path clip-path="url(#p09fa78ea50)" d="
M342.72 239.27
L342.72 15.3" style="fill:none;stroke:#000000;stroke-dasharray:1.000000,3.000000;stroke-dashoffset:0.0;stroke-width:0.5;"/>
     </g>
     <g id="line2d_18">
      <g>
       <use style="stroke:#000000;stroke-width:0.5;" x="342.719675859" xlink:href="#m93b0483c22" y="239.269833866"/>
      </g>
     </g>
     <g id="line2d_19">
      <g>
       <use style="stroke:#000000;stroke-width:0.5;" x="342.719675859" xlink:href="#m741efc42ff" y="15.3"/>
      </g>
     </g>
     <g id="text_6">
      <!-- 2012 -->
      <g transform="translate(321.141498392 261.70808627)rotate(-30.0)scale(0.1 -0.1)">
       <use xlink:href="#BitstreamVeraSans-Roman-32"/>
       <use x="63.623046875" xlink:href="#BitstreamVeraSans-Roman-30"/>
       <use x="127.24609375" xlink:href="#BitstreamVeraSans-Roman-31"/>
       <use x="190.869140625" xlink:href="#BitstreamVeraSans-Roman-32"/>
      </g>
     </g>
    </g>
    <g id="xtick_7">
     <g id="line2d_20">
      <path clip-path="url(#p09fa78ea50)" d="
M392.261 239.27
L392.261 15.3" style="fill:none;stroke:#000000;stroke-dasharray:1.000000,3.000000;stroke-dashoffset:0.0;stroke-width:0.5;"/>
     </g>
     <g id="line2d_21">
      <g>
       <use style="stroke:#000000;stroke-width:0.5;" x="392.261227627" xlink:href="#m93b0483c22" y="239.269833866"/>
      </g>
     </g>
     <g id="line2d_22">
      <g>
       <use style="stroke:#000000;stroke-width:0.5;" x="392.261227627" xlink:href="#m741efc42ff" y="15.3"/>
      </g>
     </g>
     <g id="text_7">
      <!-- 2014 -->
      <g transform="translate(370.301457716 261.92839877)rotate(-30.0)scale(0.1 -0.1)">
       <use xlink:href="#BitstreamVeraSans-Roman-32"/>
       <use x="63.623046875" xlink:href="#BitstreamVeraSans-Roman-30"/>
       <use x="127.24609375" xlink:href="#BitstreamVeraSans-Roman-31"/>
       <use x="190.869140625" xlink:href="#BitstreamVeraSans-Roman-34"/>
      </g>
     </g>
    </g>
    <g id="text_8">
     <!-- date -->
     <defs>
      <path d="
M56.2031 29.5938
L56.2031 25.2031
L14.8906 25.2031
Q15.4844 15.9219 20.4844 11.0625
Q25.4844 6.20312 34.4219 6.20312
Q39.5938 6.20312 44.4531 7.46875
Q49.3125 8.73438 54.1094 11.2812
L54.1094 2.78125
Q49.2656 0.734375 44.1875 -0.34375
Q39.1094 -1.42188 33.8906 -1.42188
Q20.7969 -1.42188 13.1562 6.1875
Q5.51562 13.8125 5.51562 26.8125
Q5.51562 40.2344 12.7656 48.1094
Q20.0156 56 32.3281 56
Q43.3594 56 49.7812 48.8906
Q56.2031 41.7969 56.2031 29.5938
M47.2188 32.2344
Q47.125 39.5938 43.0938 43.9844
Q39.0625 48.3906 32.4219 48.3906
Q24.9062 48.3906 20.3906 44.1406
Q15.875 39.8906 15.1875 32.1719
z
" id="BitstreamVeraSans-Roman-65"/>
      <path d="
M45.4062 46.3906
L45.4062 75.9844
L54.3906 75.9844
L54.3906 0
L45.4062 0
L45.4062 8.20312
Q42.5781 3.32812 38.25 0.953125
Q33.9375 -1.42188 27.875 -1.42188
Q17.9688 -1.42188 11.7344 6.48438
Q5.51562 14.4062 5.51562 27.2969
Q5.51562 40.1875 11.7344 48.0938
Q17.9688 56 27.875 56
Q33.9375 56 38.25 53.625
Q42.5781 51.2656 45.4062 46.3906
M14.7969 27.2969
Q14.7969 17.3906 18.875 11.75
Q22.9531 6.10938 30.0781 6.10938
Q37.2031 6.10938 41.2969 11.75
Q45.4062 17.3906 45.4062 27.2969
Q45.4062 37.2031 41.2969 42.8438
Q37.2031 48.4844 30.0781 48.4844
Q22.9531 48.4844 18.875 42.8438
Q14.7969 37.2031 14.7969 27.2969" id="BitstreamVeraSans-Roman-64"/>
      <path d="
M18.3125 70.2188
L18.3125 54.6875
L36.8125 54.6875
L36.8125 47.7031
L18.3125 47.7031
L18.3125 18.0156
Q18.3125 11.3281 20.1406 9.42188
Q21.9688 7.51562 27.5938 7.51562
L36.8125 7.51562
L36.8125 0
L27.5938 0
Q17.1875 0 13.2344 3.875
Q9.28125 7.76562 9.28125 18.0156
L9.28125 47.7031
L2.6875 47.7031
L2.6875 54.6875
L9.28125 54.6875
L9.28125 70.2188
z
" id="BitstreamVeraSans-Roman-74"/>
      <path d="
M34.2812 27.4844
Q23.3906 27.4844 19.1875 25
Q14.9844 22.5156 14.9844 16.5
Q14.9844 11.7188 18.1406 8.90625
Q21.2969 6.10938 26.7031 6.10938
Q34.1875 6.10938 38.7031 11.4062
Q43.2188 16.7031 43.2188 25.4844
L43.2188 27.4844
z

M52.2031 31.2031
L52.2031 0
L43.2188 0
L43.2188 8.29688
Q40.1406 3.32812 35.5469 0.953125
Q30.9531 -1.42188 24.3125 -1.42188
Q15.9219 -1.42188 10.9531 3.29688
Q6 8.01562 6 15.9219
Q6 25.1406 12.1719 29.8281
Q18.3594 34.5156 30.6094 34.5156
L43.2188 34.5156
L43.2188 35.4062
Q43.2188 41.6094 39.1406 45
Q35.0625 48.3906 27.6875 48.3906
Q23 48.3906 18.5469 47.2656
Q14.1094 46.1406 10.0156 43.8906
L10.0156 52.2031
Q14.9375 54.1094 19.5781 55.0469
Q24.2188 56 28.6094 56
Q40.4844 56 46.3438 49.8438
Q52.2031 43.7031 52.2031 31.2031" id="BitstreamVeraSans-Roman-61"/>
     </defs>
     <g transform="translate(235.81796875 276.327898477)scale(0.1 -0.1)">
      <use xlink:href="#BitstreamVeraSans-Roman-64"/>
      <use x="63.4765625" xlink:href="#BitstreamVeraSans-Roman-61"/>
      <use x="124.755859375" xlink:href="#BitstreamVeraSans-Roman-74"/>
      <use x="163.96484375" xlink:href="#BitstreamVeraSans-Roman-65"/>
     </g>
    </g>
   </g>
   <g id="matplotlib.axis_2">
    <g id="ytick_1">
     <g id="line2d_23">
      <path clip-path="url(#p09fa78ea50)" d="
M71.9016 239.27
L421.2 239.27" style="fill:none;stroke:#000000;stroke-dasharray:1.000000,3.000000;stroke-dashoffset:0.0;stroke-width:0.5;"/>
     </g>
     <g id="line2d_24">
      <defs>
       <path d="
M0 0
L4 0" id="m728421d6d4" style="stroke:#000000;stroke-width:0.5;"/>
      </defs>
      <g>
       <use style="stroke:#000000;stroke-width:0.5;" x="71.9015625" xlink:href="#m728421d6d4" y="239.269833866"/>
      </g>
     </g>
     <g id="line2d_25">
      <defs>
       <path d="
M0 0
L-4 0" id="mcb0005524f" style="stroke:#000000;stroke-width:0.5;"/>
      </defs>
      <g>
       <use style="stroke:#000000;stroke-width:0.5;" x="421.2" xlink:href="#mcb0005524f" y="239.269833866"/>
      </g>
     </g>
     <g id="text_9">
      <!-- 0 -->
      <g transform="translate(62.8625 242.029208866)scale(0.1 -0.1)">
       <use xlink:href="#BitstreamVeraSans-Roman-30"/>
      </g>
     </g>
    </g>
    <g id="ytick_2">
     <g id="line2d_26">
      <path clip-path="url(#p09fa78ea50)" d="
M71.9016 214.384
L421.2 214.384" style="fill:none;stroke:#000000;stroke-dasharray:1.000000,3.000000;stroke-dashoffset:0.0;stroke-width:0.5;"/>
     </g>
     <g id="line2d_27">
      <g>
       <use style="stroke:#000000;stroke-width:0.5;" x="71.9015625" xlink:href="#m728421d6d4" y="214.38429677"/>
      </g>
     </g>
     <g id="line2d_28">
      <g>
       <use style="stroke:#000000;stroke-width:0.5;" x="421.2" xlink:href="#mcb0005524f" y="214.38429677"/>
      </g>
     </g>
     <g id="text_10">
      <!-- 200000 -->
      <g transform="translate(31.1234375 217.14367177)scale(0.1 -0.1)">
       <use xlink:href="#BitstreamVeraSans-Roman-32"/>
       <use x="63.623046875" xlink:href="#BitstreamVeraSans-Roman-30"/>
       <use x="127.24609375" xlink:href="#BitstreamVeraSans-Roman-30"/>
       <use x="190.869140625" xlink:href="#BitstreamVeraSans-Roman-30"/>
       <use x="254.4921875" xlink:href="#BitstreamVeraSans-Roman-30"/>
       <use x="318.115234375" xlink:href="#BitstreamVeraSans-Roman-30"/>
      </g>
     </g>
    </g>
    <g id="ytick_3">
     <g id="line2d_29">
      <path clip-path="url(#p09fa78ea50)" d="
M71.9016 189.499
L421.2 189.499" style="fill:none;stroke:#000000;stroke-dasharray:1.000000,3.000000;stroke-dashoffset:0.0;stroke-width:0.5;"/>
     </g>
     <g id="line2d_30">
      <g>
       <use style="stroke:#000000;stroke-width:0.5;" x="71.9015625" xlink:href="#m728421d6d4" y="189.498759674"/>
      </g>
     </g>
     <g id="line2d_31">
      <g>
       <use style="stroke:#000000;stroke-width:0.5;" x="421.2" xlink:href="#mcb0005524f" y="189.498759674"/>
      </g>
     </g>
     <g id="text_11">
      <!-- 400000 -->
      <g transform="translate(30.8796875 192.258134674)scale(0.1 -0.1)">
       <use xlink:href="#BitstreamVeraSans-Roman-34"/>
       <use x="63.623046875" xlink:href="#BitstreamVeraSans-Roman-30"/>
       <use x="127.24609375" xlink:href="#BitstreamVeraSans-Roman-30"/>
       <use x="190.869140625" xlink:href="#BitstreamVeraSans-Roman-30"/>
       <use x="254.4921875" xlink:href="#BitstreamVeraSans-Roman-30"/>
       <use x="318.115234375" xlink:href="#BitstreamVeraSans-Roman-30"/>
      </g>
     </g>
    </g>
    <g id="ytick_4">
     <g id="line2d_32">
      <path clip-path="url(#p09fa78ea50)" d="
M71.9016 164.613
L421.2 164.613" style="fill:none;stroke:#000000;stroke-dasharray:1.000000,3.000000;stroke-dashoffset:0.0;stroke-width:0.5;"/>
     </g>
     <g id="line2d_33">
      <g>
       <use style="stroke:#000000;stroke-width:0.5;" x="71.9015625" xlink:href="#m728421d6d4" y="164.613222577"/>
      </g>
     </g>
     <g id="line2d_34">
      <g>
       <use style="stroke:#000000;stroke-width:0.5;" x="421.2" xlink:href="#mcb0005524f" y="164.613222577"/>
      </g>
     </g>
     <g id="text_12">
      <!-- 600000 -->
      <g transform="translate(31.0890625 167.372597577)scale(0.1 -0.1)">
       <use xlink:href="#BitstreamVeraSans-Roman-36"/>
       <use x="63.623046875" xlink:href="#BitstreamVeraSans-Roman-30"/>
       <use x="127.24609375" xlink:href="#BitstreamVeraSans-Roman-30"/>
       <use x="190.869140625" xlink:href="#BitstreamVeraSans-Roman-30"/>
       <use x="254.4921875" xlink:href="#BitstreamVeraSans-Roman-30"/>
       <use x="318.115234375" xlink:href="#BitstreamVeraSans-Roman-30"/>
      </g>
     </g>
    </g>
    <g id="ytick_5">
     <g id="line2d_35">
      <path clip-path="url(#p09fa78ea50)" d="
M71.9016 139.728
L421.2 139.728" style="fill:none;stroke:#000000;stroke-dasharray:1.000000,3.000000;stroke-dashoffset:0.0;stroke-width:0.5;"/>
     </g>
     <g id="line2d_36">
      <g>
       <use style="stroke:#000000;stroke-width:0.5;" x="71.9015625" xlink:href="#m728421d6d4" y="139.727685481"/>
      </g>
     </g>
     <g id="line2d_37">
      <g>
       <use style="stroke:#000000;stroke-width:0.5;" x="421.2" xlink:href="#mcb0005524f" y="139.727685481"/>
      </g>
     </g>
     <g id="text_13">
      <!-- 800000 -->
      <g transform="translate(31.06875 142.487060481)scale(0.1 -0.1)">
       <use xlink:href="#BitstreamVeraSans-Roman-38"/>
       <use x="63.623046875" xlink:href="#BitstreamVeraSans-Roman-30"/>
       <use x="127.24609375" xlink:href="#BitstreamVeraSans-Roman-30"/>
       <use x="190.869140625" xlink:href="#BitstreamVeraSans-Roman-30"/>
       <use x="254.4921875" xlink:href="#BitstreamVeraSans-Roman-30"/>
       <use x="318.115234375" xlink:href="#BitstreamVeraSans-Roman-30"/>
      </g>
     </g>
    </g>
    <g id="ytick_6">
     <g id="line2d_38">
      <path clip-path="url(#p09fa78ea50)" d="
M71.9016 114.842
L421.2 114.842" style="fill:none;stroke:#000000;stroke-dasharray:1.000000,3.000000;stroke-dashoffset:0.0;stroke-width:0.5;"/>
     </g>
     <g id="line2d_39">
      <g>
       <use style="stroke:#000000;stroke-width:0.5;" x="71.9015625" xlink:href="#m728421d6d4" y="114.842148385"/>
      </g>
     </g>
     <g id="line2d_40">
      <g>
       <use style="stroke:#000000;stroke-width:0.5;" x="421.2" xlink:href="#mcb0005524f" y="114.842148385"/>
      </g>
     </g>
     <g id="text_14">
      <!-- 1000000 -->
      <g transform="translate(25.1265625 117.601523385)scale(0.1 -0.1)">
       <use xlink:href="#BitstreamVeraSans-Roman-31"/>
       <use x="63.623046875" xlink:href="#BitstreamVeraSans-Roman-30"/>
       <use x="127.24609375" xlink:href="#BitstreamVeraSans-Roman-30"/>
       <use x="190.869140625" xlink:href="#BitstreamVeraSans-Roman-30"/>
       <use x="254.4921875" xlink:href="#BitstreamVeraSans-Roman-30"/>
       <use x="318.115234375" xlink:href="#BitstreamVeraSans-Roman-30"/>
       <use x="381.73828125" xlink:href="#BitstreamVeraSans-Roman-30"/>
      </g>
     </g>
    </g>
    <g id="ytick_7">
     <g id="line2d_41">
      <path clip-path="url(#p09fa78ea50)" d="
M71.9016 89.9566
L421.2 89.9566" style="fill:none;stroke:#000000;stroke-dasharray:1.000000,3.000000;stroke-dashoffset:0.0;stroke-width:0.5;"/>
     </g>
     <g id="line2d_42">
      <g>
       <use style="stroke:#000000;stroke-width:0.5;" x="71.9015625" xlink:href="#m728421d6d4" y="89.9566112886"/>
      </g>
     </g>
     <g id="line2d_43">
      <g>
       <use style="stroke:#000000;stroke-width:0.5;" x="421.2" xlink:href="#mcb0005524f" y="89.9566112886"/>
      </g>
     </g>
     <g id="text_15">
      <!-- 1200000 -->
      <g transform="translate(25.1265625 92.7159862886)scale(0.1 -0.1)">
       <use xlink:href="#BitstreamVeraSans-Roman-31"/>
       <use x="63.623046875" xlink:href="#BitstreamVeraSans-Roman-32"/>
       <use x="127.24609375" xlink:href="#BitstreamVeraSans-Roman-30"/>
       <use x="190.869140625" xlink:href="#BitstreamVeraSans-Roman-30"/>
       <use x="254.4921875" xlink:href="#BitstreamVeraSans-Roman-30"/>
       <use x="318.115234375" xlink:href="#BitstreamVeraSans-Roman-30"/>
       <use x="381.73828125" xlink:href="#BitstreamVeraSans-Roman-30"/>
      </g>
     </g>
    </g>
    <g id="ytick_8">
     <g id="line2d_44">
      <path clip-path="url(#p09fa78ea50)" d="
M71.9016 65.0711
L421.2 65.0711" style="fill:none;stroke:#000000;stroke-dasharray:1.000000,3.000000;stroke-dashoffset:0.0;stroke-width:0.5;"/>
     </g>
     <g id="line2d_45">
      <g>
       <use style="stroke:#000000;stroke-width:0.5;" x="71.9015625" xlink:href="#m728421d6d4" y="65.0710741924"/>
      </g>
     </g>
     <g id="line2d_46">
      <g>
       <use style="stroke:#000000;stroke-width:0.5;" x="421.2" xlink:href="#mcb0005524f" y="65.0710741924"/>
      </g>
     </g>
     <g id="text_16">
      <!-- 1400000 -->
      <g transform="translate(25.1265625 67.8304491924)scale(0.1 -0.1)">
       <use xlink:href="#BitstreamVeraSans-Roman-31"/>
       <use x="63.623046875" xlink:href="#BitstreamVeraSans-Roman-34"/>
       <use x="127.24609375" xlink:href="#BitstreamVeraSans-Roman-30"/>
       <use x="190.869140625" xlink:href="#BitstreamVeraSans-Roman-30"/>
       <use x="254.4921875" xlink:href="#BitstreamVeraSans-Roman-30"/>
       <use x="318.115234375" xlink:href="#BitstreamVeraSans-Roman-30"/>
       <use x="381.73828125" xlink:href="#BitstreamVeraSans-Roman-30"/>
      </g>
     </g>
    </g>
    <g id="ytick_9">
     <g id="line2d_47">
      <path clip-path="url(#p09fa78ea50)" d="
M71.9016 40.1855
L421.2 40.1855" style="fill:none;stroke:#000000;stroke-dasharray:1.000000,3.000000;stroke-dashoffset:0.0;stroke-width:0.5;"/>
     </g>
     <g id="line2d_48">
      <g>
       <use style="stroke:#000000;stroke-width:0.5;" x="71.9015625" xlink:href="#m728421d6d4" y="40.1855370962"/>
      </g>
     </g>
     <g id="line2d_49">
      <g>
       <use style="stroke:#000000;stroke-width:0.5;" x="421.2" xlink:href="#mcb0005524f" y="40.1855370962"/>
      </g>
     </g>
     <g id="text_17">
      <!-- 1600000 -->
      <g transform="translate(25.1265625 42.9449120962)scale(0.1 -0.1)">
       <use xlink:href="#BitstreamVeraSans-Roman-31"/>
       <use x="63.623046875" xlink:href="#BitstreamVeraSans-Roman-36"/>
       <use x="127.24609375" xlink:href="#BitstreamVeraSans-Roman-30"/>
       <use x="190.869140625" xlink:href="#BitstreamVeraSans-Roman-30"/>
       <use x="254.4921875" xlink:href="#BitstreamVeraSans-Roman-30"/>
       <use x="318.115234375" xlink:href="#BitstreamVeraSans-Roman-30"/>
       <use x="381.73828125" xlink:href="#BitstreamVeraSans-Roman-30"/>
      </g>
     </g>
    </g>
    <g id="ytick_10">
     <g id="line2d_50">
      <path clip-path="url(#p09fa78ea50)" d="
M71.9016 15.3
L421.2 15.3" style="fill:none;stroke:#000000;stroke-dasharray:1.000000,3.000000;stroke-dashoffset:0.0;stroke-width:0.5;"/>
     </g>
     <g id="line2d_51">
      <g>
       <use style="stroke:#000000;stroke-width:0.5;" x="71.9015625" xlink:href="#m728421d6d4" y="15.3"/>
      </g>
     </g>
     <g id="line2d_52">
      <g>
       <use style="stroke:#000000;stroke-width:0.5;" x="421.2" xlink:href="#mcb0005524f" y="15.3"/>
      </g>
     </g>
     <g id="text_18">
      <!-- 1800000 -->
      <g transform="translate(25.1265625 18.059375)scale(0.1 -0.1)">
       <use xlink:href="#BitstreamVeraSans-Roman-31"/>
       <use x="63.623046875" xlink:href="#BitstreamVeraSans-Roman-38"/>
       <use x="127.24609375" xlink:href="#BitstreamVeraSans-Roman-30"/>
       <use x="190.869140625" xlink:href="#BitstreamVeraSans-Roman-30"/>
       <use x="254.4921875" xlink:href="#BitstreamVeraSans-Roman-30"/>
       <use x="318.115234375" xlink:href="#BitstreamVeraSans-Roman-30"/>
       <use x="381.73828125" xlink:href="#BitstreamVeraSans-Roman-30"/>
      </g>
     </g>
    </g>
    <g id="text_19">
     <!-- number of samples -->
     <defs>
      <path id="BitstreamVeraSans-Roman-20"/>
      <path d="
M37.1094 75.9844
L37.1094 68.5
L28.5156 68.5
Q23.6875 68.5 21.7969 66.5469
Q19.9219 64.5938 19.9219 59.5156
L19.9219 54.6875
L34.7188 54.6875
L34.7188 47.7031
L19.9219 47.7031
L19.9219 0
L10.8906 0
L10.8906 47.7031
L2.29688 47.7031
L2.29688 54.6875
L10.8906 54.6875
L10.8906 58.5
Q10.8906 67.625 15.1406 71.7969
Q19.3906 75.9844 28.6094 75.9844
z
" id="BitstreamVeraSans-Roman-66"/>
      <path d="
M54.8906 33.0156
L54.8906 0
L45.9062 0
L45.9062 32.7188
Q45.9062 40.4844 42.875 44.3281
Q39.8438 48.1875 33.7969 48.1875
Q26.5156 48.1875 22.3125 43.5469
Q18.1094 38.9219 18.1094 30.9062
L18.1094 0
L9.07812 0
L9.07812 54.6875
L18.1094 54.6875
L18.1094 46.1875
Q21.3438 51.125 25.7031 53.5625
Q30.0781 56 35.7969 56
Q45.2188 56 50.0469 50.1719
Q54.8906 44.3438 54.8906 33.0156" id="BitstreamVeraSans-Roman-6e"/>
      <path d="
M52 44.1875
Q55.375 50.25 60.0625 53.125
Q64.75 56 71.0938 56
Q79.6406 56 84.2812 50.0156
Q88.9219 44.0469 88.9219 33.0156
L88.9219 0
L79.8906 0
L79.8906 32.7188
Q79.8906 40.5781 77.0938 44.375
Q74.3125 48.1875 68.6094 48.1875
Q61.625 48.1875 57.5625 43.5469
Q53.5156 38.9219 53.5156 30.9062
L53.5156 0
L44.4844 0
L44.4844 32.7188
Q44.4844 40.625 41.7031 44.4062
Q38.9219 48.1875 33.1094 48.1875
Q26.2188 48.1875 22.1562 43.5312
Q18.1094 38.875 18.1094 30.9062
L18.1094 0
L9.07812 0
L9.07812 54.6875
L18.1094 54.6875
L18.1094 46.1875
Q21.1875 51.2188 25.4844 53.6094
Q29.7812 56 35.6875 56
Q41.6562 56 45.8281 52.9688
Q50 49.9531 52 44.1875" id="BitstreamVeraSans-Roman-6d"/>
      <path d="
M30.6094 48.3906
Q23.3906 48.3906 19.1875 42.75
Q14.9844 37.1094 14.9844 27.2969
Q14.9844 17.4844 19.1562 11.8438
Q23.3438 6.20312 30.6094 6.20312
Q37.7969 6.20312 41.9844 11.8594
Q46.1875 17.5312 46.1875 27.2969
Q46.1875 37.0156 41.9844 42.7031
Q37.7969 48.3906 30.6094 48.3906
M30.6094 56
Q42.3281 56 49.0156 48.375
Q55.7188 40.7656 55.7188 27.2969
Q55.7188 13.875 49.0156 6.21875
Q42.3281 -1.42188 30.6094 -1.42188
Q18.8438 -1.42188 12.1719 6.21875
Q5.51562 13.875 5.51562 27.2969
Q5.51562 40.7656 12.1719 48.375
Q18.8438 56 30.6094 56" id="BitstreamVeraSans-Roman-6f"/>
      <path d="
M9.42188 75.9844
L18.4062 75.9844
L18.4062 0
L9.42188 0
z
" id="BitstreamVeraSans-Roman-6c"/>
      <path d="
M8.5 21.5781
L8.5 54.6875
L17.4844 54.6875
L17.4844 21.9219
Q17.4844 14.1562 20.5 10.2656
Q23.5312 6.39062 29.5938 6.39062
Q36.8594 6.39062 41.0781 11.0312
Q45.3125 15.6719 45.3125 23.6875
L45.3125 54.6875
L54.2969 54.6875
L54.2969 0
L45.3125 0
L45.3125 8.40625
Q42.0469 3.42188 37.7188 1
Q33.4062 -1.42188 27.6875 -1.42188
Q18.2656 -1.42188 13.375 4.4375
Q8.5 10.2969 8.5 21.5781" id="BitstreamVeraSans-Roman-75"/>
      <path d="
M41.1094 46.2969
Q39.5938 47.1719 37.8125 47.5781
Q36.0312 48 33.8906 48
Q26.2656 48 22.1875 43.0469
Q18.1094 38.0938 18.1094 28.8125
L18.1094 0
L9.07812 0
L9.07812 54.6875
L18.1094 54.6875
L18.1094 46.1875
Q20.9531 51.1719 25.4844 53.5781
Q30.0312 56 36.5312 56
Q37.4531 56 38.5781 55.875
Q39.7031 55.7656 41.0625 55.5156
z
" id="BitstreamVeraSans-Roman-72"/>
      <path d="
M44.2812 53.0781
L44.2812 44.5781
Q40.4844 46.5312 36.375 47.5
Q32.2812 48.4844 27.875 48.4844
Q21.1875 48.4844 17.8438 46.4375
Q14.5 44.3906 14.5 40.2812
Q14.5 37.1562 16.8906 35.375
Q19.2812 33.5938 26.5156 31.9844
L29.5938 31.2969
Q39.1562 29.25 43.1875 25.5156
Q47.2188 21.7812 47.2188 15.0938
Q47.2188 7.46875 41.1875 3.01562
Q35.1562 -1.42188 24.6094 -1.42188
Q20.2188 -1.42188 15.4531 -0.5625
Q10.6875 0.296875 5.42188 2
L5.42188 11.2812
Q10.4062 8.6875 15.2344 7.39062
Q20.0625 6.10938 24.8125 6.10938
Q31.1562 6.10938 34.5625 8.28125
Q37.9844 10.4531 37.9844 14.4062
Q37.9844 18.0625 35.5156 20.0156
Q33.0625 21.9688 24.7031 23.7812
L21.5781 24.5156
Q13.2344 26.2656 9.51562 29.9062
Q5.8125 33.5469 5.8125 39.8906
Q5.8125 47.6094 11.2812 51.7969
Q16.75 56 26.8125 56
Q31.7812 56 36.1719 55.2656
Q40.5781 54.5469 44.2812 53.0781" id="BitstreamVeraSans-Roman-73"/>
      <path d="
M18.1094 8.20312
L18.1094 -20.7969
L9.07812 -20.7969
L9.07812 54.6875
L18.1094 54.6875
L18.1094 46.3906
Q20.9531 51.2656 25.2656 53.625
Q29.5938 56 35.5938 56
Q45.5625 56 51.7812 48.0938
Q58.0156 40.1875 58.0156 27.2969
Q58.0156 14.4062 51.7812 6.48438
Q45.5625 -1.42188 35.5938 -1.42188
Q29.5938 -1.42188 25.2656 0.953125
Q20.9531 3.32812 18.1094 8.20312
M48.6875 27.2969
Q48.6875 37.2031 44.6094 42.8438
Q40.5312 48.4844 33.4062 48.4844
Q26.2656 48.4844 22.1875 42.8438
Q18.1094 37.2031 18.1094 27.2969
Q18.1094 17.3906 22.1875 11.75
Q26.2656 6.10938 33.4062 6.10938
Q40.5312 6.10938 44.6094 11.75
Q48.6875 17.3906 48.6875 27.2969" id="BitstreamVeraSans-Roman-70"/>
      <path d="
M48.6875 27.2969
Q48.6875 37.2031 44.6094 42.8438
Q40.5312 48.4844 33.4062 48.4844
Q26.2656 48.4844 22.1875 42.8438
Q18.1094 37.2031 18.1094 27.2969
Q18.1094 17.3906 22.1875 11.75
Q26.2656 6.10938 33.4062 6.10938
Q40.5312 6.10938 44.6094 11.75
Q48.6875 17.3906 48.6875 27.2969
M18.1094 46.3906
Q20.9531 51.2656 25.2656 53.625
Q29.5938 56 35.5938 56
Q45.5625 56 51.7812 48.0938
Q58.0156 40.1875 58.0156 27.2969
Q58.0156 14.4062 51.7812 6.48438
Q45.5625 -1.42188 35.5938 -1.42188
Q29.5938 -1.42188 25.2656 0.953125
Q20.9531 3.32812 18.1094 8.20312
L18.1094 0
L9.07812 0
L9.07812 75.9844
L18.1094 75.9844
z
" id="BitstreamVeraSans-Roman-62"/>
     </defs>
     <g transform="translate(18.046875 175.336479433)rotate(-90.0)scale(0.1 -0.1)">
      <use xlink:href="#BitstreamVeraSans-Roman-6e"/>
      <use x="63.37890625" xlink:href="#BitstreamVeraSans-Roman-75"/>
      <use x="126.7578125" xlink:href="#BitstreamVeraSans-Roman-6d"/>
      <use x="224.169921875" xlink:href="#BitstreamVeraSans-Roman-62"/>
      <use x="287.646484375" xlink:href="#BitstreamVeraSans-Roman-65"/>
      <use x="349.169921875" xlink:href="#BitstreamVeraSans-Roman-72"/>
      <use x="390.283203125" xlink:href="#BitstreamVeraSans-Roman-20"/>
      <use x="422.0703125" xlink:href="#BitstreamVeraSans-Roman-6f"/>
      <use x="483.251953125" xlink:href="#BitstreamVeraSans-Roman-66"/>
      <use x="518.45703125" xlink:href="#BitstreamVeraSans-Roman-20"/>
      <use x="550.244140625" xlink:href="#BitstreamVeraSans-Roman-73"/>
      <use x="602.34375" xlink:href="#BitstreamVeraSans-Roman-61"/>
      <use x="663.623046875" xlink:href="#BitstreamVeraSans-Roman-6d"/>
      <use x="761.03515625" xlink:href="#BitstreamVeraSans-Roman-70"/>
      <use x="824.51171875" xlink:href="#BitstreamVeraSans-Roman-6c"/>
      <use x="852.294921875" xlink:href="#BitstreamVeraSans-Roman-65"/>
      <use x="913.818359375" xlink:href="#BitstreamVeraSans-Roman-73"/>
     </g>
    </g>
   </g>
  </g>
 </g>
 <defs>
  <clipPath id="p09fa78ea50">
   <rect height="223.969833866" width="349.2984375" x="71.9015625" y="15.3"/>
  </clipPath>
 </defs>
</svg>
