<?xml version="1.0" encoding="utf-8" standalone="no"?>
<!DOCTYPE svg PUBLIC "-//W3C//DTD SVG 1.1//EN"
  "http://www.w3.org/Graphics/SVG/1.1/DTD/svg11.dtd">
<!-- Created with matplotlib (http://matplotlib.org/) -->
<svg height="288pt" version="1.1" viewBox="0 0 432 288" width="432pt" xmlns="http://www.w3.org/2000/svg" xmlns:xlink="http://www.w3.org/1999/xlink">
 <defs>
  <style type="text/css">
*{stroke-linecap:butt;stroke-linejoin:round;}
  </style>
 </defs>
 <g id="figure_1">
  <g id="patch_1">
   <path d="
M0 288
L432 288
L432 0
L0 0
z
" style="fill:#ffffff;"/>
  </g>
  <g id="axes_1">
   <g id="patch_2">
    <path d="
M43.6219 239.27
L421.2 239.27
L421.2 21
L43.6219 21
z
" style="fill:#ffffff;"/>
   </g>
   <g id="line2d_1">
    <path clip-path="url(#p460d2c0303)" d="
M43.6219 239.269
L66.3322 239.244
L66.4055 237.497
L66.4055 238.92
L68.9696 237.496
L108.383 237.387
L108.383 237.388
L109.335 237.363
L113.438 237.252
L113.658 237.246
L113.877 236.929
L113.877 237.096
L113.877 237.241
L113.877 237.173
L113.877 237.173
L113.951 236.925
L113.951 236.925
L114.537 236.895
L126.698 236.724
L126.698 236.725
L135.709 236.506
L141.203 236.385
L141.203 236.386
L141.276 236.385
L141.276 236.385
L144.28 236.322
L144.28 236.33
L144.5 236.068
L144.5 236.068
L148.456 235.956
L148.456 235.772
L148.456 235.772
L148.456 235.772
L148.456 235.956
L148.456 235.956
L148.456 235.956
L148.529 235.772
L151.899 235.654
L151.972 235.652
L151.972 235.654
L159.078 235.357
L159.078 235.378
L159.591 235.303
L159.591 235.313
L161.643 235.159
L161.643 235.159
L164.353 235.042
L164.426 235.031
L164.426 235.032
L165.818 234.897
L165.818 234.915
L166.185 234.872
L166.185 234.875
L166.185 234.875
L166.185 234.875
L168.163 234.737
L170.36 234.628
L170.36 234.629
L175.195 234.198
L175.195 234.199
L176.514 234.084
L176.514 234.094
L177.613 234
L177.613 234.001
L179.225 233.839
L179.225 233.845
L179.811 233.752
L179.811 233.769
L184.206 233.377
L184.206 233.378
L184.353 232.805
L186.038 232.687
L187.21 232.594
L187.21 232.596
L187.357 232.332
L187.357 232.334
L187.796 232.253
L188.016 232.033
L188.016 232.15
L188.455 231.981
L188.455 231.987
L188.748 231.967
L188.748 231.968
L188.895 231.733
L188.895 231.745
L189.774 231.613
L189.774 231.632
L189.774 231.634
L189.774 231.634
L189.774 231.634
L190.214 231.588
L190.214 231.588
L190.433 231.506
L190.433 231.543
L190.58 231.467
L190.58 231.469
L191.386 231.386
L191.386 231.39
L191.606 231.317
L191.606 231.318
L194.023 230.989
L194.023 230.992
L194.17 230.875
L194.17 230.876
L196.074 230.705
L197.54 230.537
L197.54 230.539
L197.686 230.125
L197.686 230.126
L198.785 230.07
L198.785 230.07
L198.785 230.07
L198.785 230.07
L199.518 229.96
L199.518 229.963
L200.323 229.883
L200.323 229.885
L201.203 229.806
L201.203 229.808
L201.422 229.715
L201.422 229.716
L202.741 229.601
L202.741 229.618
L202.961 229.551
L202.961 229.552
L203.693 229.464
L203.693 229.353
L203.693 229.353
L203.693 229.353
L203.693 229.472
L203.693 229.466
L203.693 229.466
L203.913 229.303
L203.913 229.306
L204.646 229.163
L204.646 229.18
L204.865 229.12
L206.038 228.957
L206.111 228.841
L206.257 228.83
L206.257 228.837
L206.477 228.639
L206.477 228.658
L206.477 228.691
L206.477 228.691
L206.477 228.691
L206.55 228.639
L208.235 228.449
L208.235 228.389
L208.235 228.448
L208.235 228.448
L208.235 228.449
L208.235 228.449
L208.235 228.449
L208.235 228.388
L208.235 228.388
L208.235 228.388
L208.235 228.453
L208.235 228.45
L208.235 228.45
L208.455 228.375
L208.455 228.378
L210.36 228.13
L210.36 228.136
L210.58 228.064
L210.58 228.07
L210.726 228.038
L210.726 228.041
L210.946 221.957
L210.946 221.973
L211.312 221.923
L211.312 221.926
L211.459 221.799
L211.459 221.761
L211.459 221.761
L211.459 221.761
L211.459 221.914
L211.459 221.862
L211.459 221.862
L211.605 221.731
L211.605 221.748
L214.902 220.981
L214.902 221.076
L214.902 221.08
L214.902 221.08
L214.902 221.08
L214.975 220.975
L214.975 220.981
L215.635 220.807
L215.635 220.808
L215.635 220.814
L215.635 220.814
L215.635 220.814
L216.733 220.581
L216.733 220.588
L217.1 220.458
L217.1 220.481
L217.539 220.399
L217.539 220.407
L217.686 219.846
L217.686 219.865
L218.785 219.6
L218.785 219.602
L219.444 219.506
L219.444 219.482
L219.444 219.482
L219.444 219.482
L219.444 219.539
L219.444 219.539
L219.444 219.539
L219.737 219.352
L219.737 219.403
L219.737 219.443
L219.737 219.443
L219.737 219.443
L219.81 219.345
L219.81 219.351
L220.103 219.19
L220.103 219.134
L220.103 219.134
L220.103 219.134
L220.103 219.297
L220.103 219.213
L220.103 219.213
L220.323 219.082
L220.323 219.084
L220.982 218.966
L221.276 218.837
L221.276 218.873
L221.349 218.342
L221.349 218.794
L221.569 218.336
L221.569 218.338
L222.667 218.153
L222.814 217.622
L222.814 217.623
L223.327 217.591
L223.327 217.597
L223.693 217.167
L223.693 217.174
L224.938 216.892
L224.938 216.896
L225.744 216.785
L225.744 216.792
L226.33 216.465
L226.33 216.491
L226.99 216.329
L226.99 216.333
L227.649 216.227
L227.869 215.984
L227.869 215.991
L229.481 215.648
L229.92 215.502
L229.92 215.512
L230.286 215.442
L230.286 215.445
L230.286 215.455
L230.286 215.446
L230.286 215.446
L231.385 215.279
L231.385 215.296
L231.678 214.776
L231.678 214.776
L232.191 214.662
L232.191 214.661
L232.557 214.55
L232.557 214.564
L232.704 214.517
L233.437 214.429
L233.437 214.433
L233.656 214.338
L233.656 214.342
L234.609 214.175
L234.609 214.178
L234.755 213.755
L234.755 213.755
L235.195 213.644
L235.268 213.63
L236.147 213.543
L236.147 213.481
L236.147 213.542
L236.147 213.542
L236.147 213.543
L236.147 213.543
L236.147 213.543
L236.147 213.481
L236.147 213.481
L236.147 213.481
L236.147 213.552
L236.147 213.543
L236.147 213.543
L236.294 213.371
L236.294 213.381
L236.66 213.234
L236.66 213.236
L236.66 213.217
L236.66 213.217
L236.66 213.217
L236.66 213.267
L236.66 213.251
L236.66 213.251
L236.953 213.158
L236.953 213.168
L238.565 212.685
L238.565 212.716
L238.858 212.588
L238.858 212.589
L239.004 212.564
L239.004 212.569
L239.151 211.773
L239.151 211.775
L240.176 211.495
L240.176 211.48
L240.176 211.48
L240.176 211.48
L240.176 211.497
L240.176 211.497
L240.176 211.497
L240.176 211.48
L240.176 211.48
L240.176 211.48
L240.176 211.502
L240.176 211.5
L240.176 211.5
L240.25 211.477
L240.25 211.326
L240.25 211.476
L240.25 211.476
L240.25 211.479
L240.25 211.477
L240.25 211.477
L240.396 211.287
L240.909 211.194
L241.056 211.105
L241.056 211.19
L241.202 210.735
L241.202 210.739
L242.301 210.412
L242.301 210.435
L242.301 210.223
L242.301 210.417
L242.301 210.417
L242.301 210.435
L242.301 210.435
L242.301 210.435
L242.301 210.219
L242.301 210.219
L242.301 210.219
L242.301 210.474
L242.301 210.446
L242.301 210.446
L242.447 210.189
L242.447 210.19
L242.594 210.178
L242.594 210.181
L242.74 210.021
L242.74 210.038
L243.546 209.823
L244.059 209.745
L244.279 209.59
L244.279 209.592
L245.378 209.377
L245.378 209.399
L245.378 209.415
L245.378 209.415
L245.378 209.415
L245.451 209.349
L245.451 209.359
L246.184 209.234
L246.184 209.24
L246.403 209.085
L246.403 209.092
L246.403 209.102
L246.403 209.102
L246.403 209.102
L246.477 209.069
L246.477 209.079
L246.99 208.9
L246.99 208.9
L246.99 208.894
L246.99 208.899
L246.99 208.899
L246.99 208.948
L246.99 208.901
L246.99 208.901
L247.722 208.714
L247.722 208.716
L248.015 208.425
L248.015 208.554
L248.015 208.517
L248.015 208.517
L248.235 208.395
L248.235 208.397
L248.381 208.258
L248.381 208.249
L248.381 208.25
L248.381 208.25
L248.381 208.266
L248.381 208.266
L248.381 208.266
L248.381 208.248
L248.381 208.256
L248.381 208.256
L248.381 208.284
L248.381 208.268
L248.381 208.268
L248.674 208.201
L248.748 208.189
L248.748 208.195
L248.894 207.901
L248.894 207.924
L249.334 207.839
L249.334 207.845
L249.7 207.761
L249.7 207.765
L249.92 207.346
L249.92 207.59
L249.92 207.605
L249.92 207.601
L249.92 207.601
L250.14 207.084
L250.359 207.015
L250.359 207.041
L250.506 206.637
L250.506 206.644
L251.092 206.456
L251.092 206.304
L251.092 206.456
L251.092 206.456
L251.092 206.456
L251.092 206.456
L251.092 206.456
L251.092 206.455
L251.092 206.455
L251.092 206.455
L251.092 206.472
L251.092 206.472
L251.092 206.472
L251.312 205.799
L251.312 205.82
L251.312 206.298
L251.312 206.298
L251.312 206.298
L251.312 205.82
L251.312 205.82
L251.312 205.82
L251.312 206.303
L251.312 206.303
L251.312 206.303
L251.458 205.761
L251.458 205.767
L251.971 205.576
L251.971 205.581
L252.557 205.436
L252.557 205.245
L252.557 205.247
L252.557 205.247
L252.557 205.454
L252.557 205.445
L252.557 205.445
L252.704 205.193
L252.997 205.087
L252.997 205.078
L252.997 205.078
L252.997 205.078
L252.997 205.101
L252.997 205.101
L252.997 205.101
L253.217 205.016
L253.436 204.99
L253.436 205.004
L253.656 204.853
L254.022 204.684
L254.022 204.735
L254.022 204.771
L254.022 204.767
L254.022 204.767
L254.242 204.643
L255.268 204.231
L255.268 204.239
L255.488 203.927
L255.488 203.937
L255.781 203.891
L256.513 203.767
L256.513 203.784
L257.392 203.295
L257.685 203.218
L257.685 203.247
L257.905 203.163
L257.905 203.166
L258.711 202.926
L258.711 202.947
L258.858 202.882
L259.517 202.733
L259.517 202.74
L259.81 202.598
L259.81 202.607
L259.81 202.618
L259.81 202.613
L260.176 202.516
L260.176 202.453
L260.176 202.455
L260.176 202.455
L260.176 202.547
L260.176 202.522
L260.176 202.522
L260.396 202.426
L260.616 202.315
L260.616 202.331
L260.836 201.955
L260.836 201.961
L261.275 201.843
L261.275 201.853
L261.641 201.762
L261.641 201.774
L261.641 201.783
L261.641 201.778
L261.641 201.778
L261.715 201.709
L261.715 201.713
L261.861 200.4
L261.861 200.412
L262.008 200.393
L262.227 200.085
L262.227 200.118
L262.374 199.908
L262.374 199.767
L262.374 199.78
L262.374 199.78
L262.374 200.056
L262.374 200.024
L262.667 199.683
L262.667 199.704
L263.839 199.226
L263.839 199.063
L263.839 199.063
L263.839 199.063
L263.839 199.245
L263.839 199.227
L263.839 199.227
L263.986 198.896
L263.986 198.896
L264.205 198.788
L264.205 198.795
L264.425 198.66
L264.425 198.678
L264.572 198.426
L265.231 198.227
L265.231 198.237
L265.451 197.92
L265.451 197.932
L265.451 197.952
L265.451 197.935
L265.89 197.79
L265.89 197.808
L266.11 197.684
L267.282 197.336
L267.282 197.363
L267.575 197.073
L267.722 196.969
L267.722 197.024
L268.015 196.659
L268.015 196.696
L268.015 196.733
L268.015 196.725
L268.015 196.725
L268.088 196.659
L268.235 196.594
L268.235 196.438
L268.235 196.439
L268.235 196.439
L268.235 196.615
L268.235 196.615
L268.235 196.615
L268.235 196.437
L268.235 196.497
L268.235 196.497
L268.235 196.647
L268.235 196.643
L268.235 196.643
L268.454 196.3
L268.454 196.309
L268.454 196.348
L268.454 196.319
L268.454 196.319
L268.528 196.188
L268.528 196.188
L268.528 196.116
L268.528 196.116
L268.528 196.116
L268.528 196.299
L268.528 196.287
L268.528 196.287
L268.674 196.094
L269.114 195.924
L269.846 195.786
L269.846 195.78
L269.846 195.786
L269.846 195.786
L269.846 195.797
L269.846 195.786
L269.846 195.786
L270.872 195.412
L270.872 195.459
L271.092 195.224
L271.092 195.323
L271.092 195.336
L271.092 195.334
L271.092 195.334
L271.092 195.323
L271.092 195.332
L271.605 195.027
L271.605 195.043
L272.41 194.763
L272.41 194.762
L272.41 194.762
L272.41 194.762
L272.41 194.836
L272.41 194.774
L272.41 194.774
L274.169 194.06
L274.169 194.005
L274.169 194.005
L274.169 194.005
L274.169 194.087
L274.169 194.087
L274.169 194.087
L274.169 194.005
L274.169 194.005
L274.169 194.005
L274.169 194.112
L274.169 194.108
L274.169 194.108
L274.315 194.001
L274.462 193.883
L274.462 193.917
L274.975 193.655
L274.975 193.713
L274.975 193.781
L274.975 193.781
L274.975 193.781
L275.048 193.613
L275.048 193.641
L275.121 193.599
L275.121 193.61
L275.268 193.203
L275.414 193.103
L275.414 193.199
L275.707 192.835
L275.707 192.845
L275.927 192.802
L276.147 192.612
L276.147 192.616
L276.586 192.484
L276.586 192.529
L276.586 192.526
L276.586 192.526
L276.879 192.424
L276.879 192.429
L277.539 192.281
L277.539 192.281
L277.539 192.138
L277.539 192.138
L277.539 192.138
L277.539 192.281
L277.539 192.281
L277.539 192.281
L277.539 192.137
L277.539 192.137
L277.539 192.137
L277.539 192.326
L277.539 192.287
L277.539 192.287
L277.758 191.903
L277.758 191.911
L277.905 191.902
L277.905 191.903
L278.125 191.337
L278.125 191.354
L278.711 191.108
L278.711 191.11
L278.784 190.78
L278.784 191.024
L279.224 190.624
L279.224 190.669
L279.224 190.699
L279.224 190.692
L279.224 190.692
L279.297 190.592
L279.297 190.6
L279.443 190.592
L279.663 189.911
L279.663 190.325
L279.663 190.318
L279.663 190.318
L279.81 189.724
L279.81 189.758
L280.762 189.474
L280.762 189.444
L280.762 189.444
L280.762 189.444
L280.762 189.492
L280.762 189.489
L280.762 189.489
L280.909 189.409
L281.055 189.354
L281.055 189.402
L281.275 188.345
L281.275 188.42
L281.641 188.08
L281.641 188.092
L281.641 188.158
L281.641 188.108
L281.641 188.108
L281.714 188.056
L281.714 188.078
L281.788 188.048
L281.788 187.819
L281.788 187.826
L281.788 187.826
L281.788 188.049
L281.788 188.049
L281.788 188.049
L281.788 187.819
L281.788 187.827
L281.788 187.827
L281.788 188.056
L281.788 188.053
L281.788 188.053
L281.934 187.695
L281.934 187.696
L282.154 187.592
L282.154 187.682
L282.227 187.533
L282.227 187.564
L282.447 186.214
L282.447 186.214
L282.74 186.121
L282.74 186.121
L283.326 185.925
L283.326 185.993
L283.326 186.03
L283.326 186.024
L283.326 186.024
L283.473 185.901
L283.692 185.801
L283.692 185.868
L283.985 185.648
L285.158 185.143
L285.158 185.125
L285.158 185.125
L285.158 185.125
L285.158 185.31
L285.158 185.148
L285.158 185.148
L285.451 184.787
L285.451 184.857
L285.89 184.526
L285.89 184.478
L285.89 184.478
L285.89 184.478
L285.89 184.711
L285.89 184.625
L285.89 184.625
L286.037 184.412
L286.037 184.412
L286.256 184.323
L286.256 184.354
L286.476 183.999
L286.476 184.016
L286.696 183.952
L286.696 183.81
L286.696 183.81
L286.696 183.81
L286.696 183.998
L286.696 183.967
L286.696 183.967
L286.843 183.686
L286.843 183.689
L287.429 183.421
L287.429 183.473
L287.575 183.351
L287.722 183.348
L287.795 182.943
L287.795 183.027
L288.015 182.834
L288.015 182.858
L288.747 182.571
L288.747 182.581
L289.04 181.644
L289.04 181.66
L289.04 181.753
L289.04 181.753
L289.04 181.753
L289.114 181.545
L289.187 181.545
L289.48 180.797
L289.48 180.807
L289.48 180.862
L289.48 180.844
L289.48 180.844
L289.7 180.794
L289.773 180.785
L289.773 180.789
L290.066 180.314
L290.066 180.315
L290.066 180.385
L290.066 180.385
L290.066 180.385
L290.286 180.282
L290.286 180.313
L290.945 179.959
L290.945 179.982
L291.092 179.427
L291.092 179.465
L292.703 178.729
L293.363 178.591
L293.363 178.646
L293.582 178.08
L293.582 178.087
L293.656 177.944
L293.656 178.077
L294.242 177.624
L294.535 177.491
L294.535 177.513
L294.901 177.323
L294.901 177.347
L294.901 177.366
L294.901 177.366
L294.901 177.366
L294.974 177.296
L294.974 177.32
L295.414 176.99
L295.414 177.084
L295.414 177.151
L295.414 177.148
L295.414 177.148
L295.634 176.67
L295.634 176.74
L295.853 176.647
L296.586 176.421
L296.586 176.445
L296.733 176.238
L296.733 176.009
L296.733 176.009
L296.733 176.009
L296.733 176.329
L296.733 176.323
L296.733 176.323
L296.879 175.991
L296.879 175.993
L297.758 175.389
L297.758 175.437
L297.758 175.301
L297.758 175.403
L297.758 175.403
L297.758 175.475
L297.758 175.442
L297.758 175.442
L297.978 175.23
L297.978 175.23
L297.978 175.294
L297.978 175.267
L297.978 175.267
L298.198 174.954
L298.198 174.988
L298.198 174.925
L298.198 174.927
L298.198 174.927
L298.198 175.031
L298.198 175.013
L298.198 175.013
L298.344 174.865
L298.711 174.759
L298.711 174.767
L298.784 174.43
L298.784 174.759
L299.223 174.025
L299.223 174.029
L299.223 174.028
L299.223 174.028
L299.223 174.021
L299.223 174.021
L299.223 174.021
L299.223 174.046
L299.223 174.046
L299.223 174.046
L299.223 174.021
L299.223 174.022
L299.223 174.022
L299.223 174.066
L299.223 174.058
L299.223 174.058
L299.516 173.959
L299.516 173.964
L299.516 173.96
L299.516 173.96
L299.516 173.95
L299.516 173.954
L299.516 173.954
L299.516 173.99
L299.516 173.973
L299.516 173.973
L299.883 173.584
L300.102 173.519
L300.102 172.854
L300.102 172.854
L300.102 172.854
L300.102 173.557
L300.102 173.554
L300.102 173.554
L300.322 172.365
L300.322 172.391
L300.322 172.769
L300.322 172.769
L300.322 172.769
L300.396 172.364
L300.542 172.336
L300.542 172.339
L300.689 172.058
L300.689 172.086
L300.835 171.999
L300.835 172.029
L301.787 171.723
L301.787 171.778
L301.934 171.666
L302.08 171.627
L302.08 171.662
L302.374 170.228
L302.374 170.245
L302.74 170.044
L302.74 170.064
L302.74 170.043
L302.74 170.052
L302.74 170.052
L302.74 170.099
L302.74 170.071
L302.74 170.071
L303.033 169.979
L303.106 169.979
L303.179 169.775
L303.179 169.797
L303.399 169.514
L303.399 169.53
L303.692 169.448
L303.692 169.376
L303.692 169.377
L303.692 169.377
L303.692 169.497
L303.692 169.463
L303.692 169.463
L303.985 169.166
L303.985 169.168
L304.205 169.023
L304.205 169.057
L304.645 168.339
L304.645 168.353
L304.645 168.585
L304.645 168.58
L304.645 168.58
L304.791 168.31
L304.791 168.318
L305.304 168.041
L305.304 167.651
L305.304 167.651
L305.304 167.651
L305.304 168.132
L305.304 168.055
L305.304 168.055
L305.45 167.562
L305.45 167.595
L305.743 167.5
L305.743 166.975
L305.743 166.975
L305.743 166.975
L305.743 167.541
L305.743 167.516
L305.743 167.516
L305.89 166.792
L305.89 166.825
L306.11 166.733
L306.403 166.603
L306.403 166.597
L306.403 166.597
L306.403 166.597
L306.403 166.625
L306.403 166.617
L306.403 166.617
L306.842 166.189
L306.842 166.213
L307.355 166.022
L307.355 166.028
L307.721 165.386
L307.721 165.464
L307.941 164.186
L307.941 164.187
L308.381 163.918
L308.381 163.972
L308.527 163.224
L308.527 163.257
L308.894 162.713
L308.894 162.518
L308.894 162.518
L308.894 162.518
L308.894 162.767
L308.894 162.757
L308.894 162.757
L308.967 162.444
L308.967 162.452
L309.699 162.364
L309.699 162.366
L309.919 161.776
L309.919 162.195
L309.919 162.191
L309.919 162.191
L310.066 161.747
L310.066 161.765
L310.359 161.677
L310.359 161.709
L310.505 161.352
L310.505 161.383
L310.652 161.321
L310.945 161.183
L310.945 161.154
L310.945 161.154
L310.945 161.154
L310.945 161.223
L310.945 161.214
L310.945 161.214
L311.091 160.64
L311.091 160.674
L311.238 160.64
L311.604 159.936
L311.604 159.974
L311.751 159.936
L311.97 159.323
L311.97 159.346
L312.337 158.977
L312.337 159.1
L312.557 158.46
L312.557 158.463
L312.557 158.725
L312.557 158.685
L312.557 158.685
L312.703 158.357
L312.703 158.363
L312.776 158.337
L312.776 158.353
L313.069 157.482
L313.069 157.386
L313.069 157.392
L313.069 157.392
L313.069 157.599
L313.069 157.547
L313.069 157.547
L313.216 157.364
L313.216 157.364
L313.655 157.249
L313.655 157.255
L313.875 157.144
L313.875 157.188
L314.242 156.862
L314.608 156.638
L314.608 156.658
L315.34 155.952
L315.414 155.933
L315.414 155.948
L315.633 154.999
L315.633 155.017
L315.926 154.942
L315.926 154.948
L315.926 154.96
L315.926 154.954
L315.926 154.954
L316.146 154.775
L316.146 154.689
L316.146 154.696
L316.146 154.696
L316.146 154.785
L316.146 154.781
L316.146 154.781
L316.439 154.409
L316.439 154.494
L316.439 154.487
L316.439 154.487
L316.732 154.19
L316.732 154.216
L317.099 153.986
L317.099 154.013
L317.099 153.935
L317.099 153.935
L317.099 153.935
L317.099 154.083
L317.099 154.083
L317.099 154.083
L317.099 153.932
L317.099 153.934
L317.099 153.934
L317.099 154.095
L317.099 154.092
L317.099 154.092
L317.318 153.776
L317.318 153.777
L317.538 153.669
L317.538 153.716
L317.758 153.213
L317.758 153.235
L318.198 153.037
L318.198 153.069
L318.344 152.862
L318.344 152.866
L318.564 152.746
L318.564 152.761
L318.564 152.708
L318.564 152.749
L318.564 152.749
L318.564 152.762
L318.564 152.762
L318.564 152.762
L318.564 152.749
L318.564 152.749
L318.564 152.749
L318.564 152.82
L318.564 152.81
L318.564 152.81
L318.71 152.3
L318.71 152.311
L319.15 152.1
L319.15 152.12
L319.443 151.999
L319.443 152.005
L319.663 151.822
L319.663 151.814
L319.663 151.814
L319.663 151.814
L319.663 151.924
L319.663 151.904
L319.663 151.904
L319.882 151.567
L319.882 151.57
L320.176 151.453
L320.176 151.464
L320.322 151.284
L320.322 151.197
L320.322 151.197
L320.322 151.197
L320.322 151.297
L320.322 151.287
L320.322 151.287
L320.542 151.146
L320.615 151.123
L320.615 151.138
L320.835 150.769
L320.835 150.832
L321.055 150.742
L321.055 150.763
L321.201 150.209
L321.201 150.232
L321.641 150.032
L321.641 150.042
L321.641 150.084
L321.641 150.084
L321.641 150.084
L321.714 149.681
L321.714 149.731
L321.934 149.589
L322.154 149.483
L322.154 149.512
L322.666 148.886
L322.666 149.064
L322.813 147.994
L322.813 148.253
L322.959 147.953
L322.959 147.957
L323.179 147.852
L323.179 147.941
L323.545 146.926
L323.545 146.928
L323.765 146.67
L323.765 146.67
L323.765 146.645
L323.765 146.645
L323.765 146.645
L323.765 146.812
L323.765 146.794
L323.765 146.794
L323.912 146.535
L323.912 146.583
L324.058 146.398
L324.058 146.399
L324.205 146.189
L324.205 145.461
L324.205 145.461
L324.205 145.461
L324.205 146.261
L324.205 146.221
L324.205 146.221
L324.351 145.379
L324.351 145.408
L324.571 145.323
L324.571 145.323
L324.864 145.165
L324.864 145.192
L325.011 144.843
L325.011 144.846
L325.23 144.75
L325.23 144.772
L325.377 143.776
L325.377 143.828
L325.67 143.727
L325.67 143.73
L325.67 143.762
L325.67 143.759
L325.67 143.759
L325.963 143.27
L325.963 143.285
L326.256 143.15
L326.256 143.157
L326.256 142.684
L326.256 142.684
L326.256 142.684
L326.256 143.172
L326.256 143.159
L326.256 143.159
L326.403 142.534
L326.403 142.612
L326.696 142.244
L326.696 142.366
L326.696 142.509
L326.696 142.38
L326.696 142.38
L326.915 142.045
L326.915 142.051
L327.282 141.884
L327.282 141.888
L327.282 141.824
L327.282 141.884
L327.282 141.884
L327.282 141.972
L327.282 141.889
L327.282 141.889
L327.501 141.486
L327.501 141.626
L327.501 141.649
L327.501 141.649
L327.501 141.649
L327.575 141.485
L327.794 141.399
L327.794 141.461
L328.014 141.265
L328.014 140.724
L328.014 140.724
L328.014 140.724
L328.014 141.282
L328.014 141.282
L328.014 141.282
L328.014 140.72
L328.014 140.724
L328.014 140.724
L328.014 141.31
L328.014 141.293
L328.014 141.293
L328.088 140.682
L328.088 140.682
L328.454 140.419
L328.454 140.42
L328.454 140.304
L328.454 140.399
L328.454 140.399
L328.454 140.438
L328.454 140.438
L328.454 140.438
L328.454 140.306
L328.454 140.42
L328.454 140.42
L328.454 140.439
L328.454 140.439
L328.454 140.439
L328.454 140.362
L328.454 140.362
L328.454 140.362
L328.454 140.45
L328.454 140.443
L328.454 140.443
L328.527 140.141
L328.527 139.618
L328.527 139.618
L328.527 139.618
L328.527 140.304
L328.527 140.281
L328.527 140.281
L328.674 139.613
L328.674 139.613
L328.747 139.5
L328.747 139.612
L328.967 138.878
L328.967 138.895
L329.333 138.717
L329.333 138.741
L329.479 136.936
L329.479 137.163
L329.626 136.625
L329.626 136.635
L329.846 136.523
L329.846 136.555
L330.066 136.036
L330.066 136.152
L330.212 136.022
L330.285 136.004
L330.285 136.019
L330.432 135.767
L330.432 135.834
L330.578 135.281
L330.578 135.364
L330.871 135.182
L330.871 135.192
L330.871 135.207
L330.871 135.195
L330.871 135.195
L331.384 134.888
L331.384 134.935
L331.384 134.955
L331.384 134.943
L331.384 134.943
L331.604 134.701
L331.604 134.75
L331.604 134.77
L331.604 134.77
L331.604 134.77
L331.677 134.597
L331.677 134.597
L331.75 134.595
L331.75 134.597
L331.97 133.998
L331.97 134.021
L331.97 134.044
L331.97 134.044
L331.97 134.044
L332.044 133.902
L332.044 133.947
L332.117 133.732
L332.117 133.893
L332.263 133.731
L332.41 131.951
L332.41 131.966
L332.63 131.734
L332.63 131.759
L333.289 131.337
L333.435 130.609
L333.435 130.627
L334.315 130.348
L334.315 130.35
L334.534 128.685
L334.534 128.718
L334.754 128.265
L334.901 128.184
L334.901 128.184
L334.901 128.118
L334.901 128.118
L334.901 128.118
L334.901 128.256
L334.901 128.191
L334.901 128.191
L335.194 127.843
L335.194 127.9
L335.56 127.492
L335.56 127.526
L335.706 127.104
L335.706 127.206
L335.926 127.079
L336.146 126.999
L336.146 127.03
L336.219 126.74
L336.219 126.863
L336.879 126.445
L337.025 126.335
L337.025 126.349
L337.245 125.993
L337.245 126.007
L337.538 125.924
L337.538 125.94
L337.758 125.709
L337.758 125.735
L338.051 125.53
L338.051 125.558
L338.344 125.348
L338.344 125.35
L338.564 125.255
L338.564 125.293
L339.003 125.058
L339.003 125.062
L339.003 125.073
L339.003 125.065
L339.003 125.065
L339.223 124.939
L339.223 124.943
L339.223 124.704
L339.223 124.706
L339.223 124.706
L339.223 124.947
L339.223 124.947
L339.223 124.947
L339.223 124.698
L339.223 124.709
L339.223 124.709
L339.223 125.004
L339.223 124.948
L339.223 124.948
L339.369 124.363
L339.369 124.364
L339.516 124.268
L339.516 124.353
L339.736 124.133
L339.736 124.165
L339.956 124.098
L340.175 123.945
L340.175 123.908
L340.175 123.908
L340.175 123.908
L340.175 123.982
L340.175 123.979
L340.175 123.979
L340.395 123.603
L340.542 123.586
L340.542 123.599
L340.908 123.075
L340.908 123.097
L341.054 122.94
L341.054 123.062
L341.274 122.187
L341.274 122.631
L341.274 122.77
L341.274 122.77
L341.274 122.77
L341.347 122.109
L341.347 122.134
L341.567 122.017
L341.567 122.084
L341.787 119.711
L341.787 119.736
L342.153 119.549
L342.153 119.56
L342.153 119.635
L342.153 119.562
L342.153 119.562
L342.52 119.338
L342.52 119.341
L342.666 119.029
L342.666 119.069
L342.813 118.155
L342.813 118.177
L343.692 117.794
L343.692 117.794
L343.692 117.535
L343.692 117.535
L343.692 117.535
L343.692 117.812
L343.692 117.798
L343.692 117.798
L343.912 117.217
L343.912 117.221
L343.912 117.365
L343.912 117.351
L343.912 117.351
L344.131 117.021
L344.131 117.176
L344.131 117.207
L344.131 117.177
L344.131 117.177
L344.131 117.176
L344.131 117.176
L344.131 117.176
L344.131 117.208
L344.131 117.178
L344.131 117.178
L344.278 116.657
L344.278 113.434
L344.278 113.436
L344.278 113.436
L344.278 116.676
L344.278 116.672
L344.278 116.672
L344.424 113.267
L344.424 113.413
L344.571 113.257
L345.377 112.96
L345.377 112.904
L345.377 112.904
L345.377 112.904
L345.377 112.988
L345.377 112.962
L345.377 112.962
L345.596 112.829
L345.596 112.829
L346.256 112.483
L346.256 112.433
L346.256 112.48
L346.256 112.48
L346.256 112.486
L346.256 112.483
L346.256 112.483
L346.476 112.377
L346.476 112.381
L346.695 112.326
L346.695 112.364
L346.988 111.634
L346.988 111.783
L346.988 111.835
L346.988 111.835
L346.988 111.835
L346.988 111.78
L346.988 111.78
L346.988 111.78
L346.988 111.835
L346.988 111.822
L346.988 111.822
L347.135 111.633
L347.135 111.633
L347.355 111.591
L347.355 111.587
L347.355 110.516
L347.355 110.516
L347.355 110.516
L347.355 111.613
L347.355 111.606
L347.355 111.606
L347.501 110.49
L347.501 110.498
L347.794 110.385
L347.794 110.335
L347.794 110.335
L347.794 110.335
L347.794 110.454
L347.794 110.399
L347.794 110.399
L347.941 110.218
L347.941 110.23
L348.527 110.029
L348.527 110.044
L348.673 110.027
L348.673 110.029
L348.82 109.783
L348.82 109.811
L349.479 109.4
L349.479 109.475
L349.626 108.631
L349.772 108.616
L349.772 108.626
L349.919 107.524
L349.919 107.527
L350.358 107.367
L350.358 107.372
L350.358 107.386
L350.358 107.386
L350.358 107.386
L350.358 107.361
L350.358 107.361
L350.358 107.361
L350.358 107.393
L350.358 107.391
L350.358 107.391
L350.505 106.818
L350.505 106.861
L350.725 106.758
L350.725 106.758
L350.798 106.721
L350.798 106.133
L350.798 106.155
L350.798 106.155
L350.798 106.755
L350.798 106.731
L350.798 106.731
L350.944 105.95
L350.944 106.013
L351.311 105.637
L351.311 105.733
L351.311 105.8
L351.311 105.799
L351.311 105.799
L351.384 105.611
L351.384 105.629
L351.53 102.643
L351.53 102.768
L351.677 102.628
L351.97 102.512
L351.97 102.53
L352.336 102.365
L352.336 102.395
L352.336 102.416
L352.336 102.414
L352.336 102.414
L352.629 102.028
L352.629 102.063
L353.069 101.724
L353.069 101.931
L353.142 101.531
L353.142 101.717
L353.362 101.465
L353.362 101.523
L353.508 100.907
L353.508 100.922
L353.948 100.407
L353.948 100.439
L353.948 100.537
L353.948 100.534
L353.948 100.534
L354.168 100.107
L354.168 100.205
L354.168 100.304
L354.168 100.304
L354.168 100.304
L354.168 99.9717
L354.168 99.9717
L354.168 99.9717
L354.168 100.305
L354.168 100.305
L354.168 100.305
L354.168 99.9708
L354.168 99.9708
L354.168 99.9708
L354.168 100.317
L354.168 100.306
L354.168 100.306
L354.241 99.9706
L354.461 99.8708
L354.461 99.6904
L354.461 99.7239
L354.461 99.7239
L354.461 99.9394
L354.461 99.9263
L354.461 99.9263
L354.607 99.6137
L354.607 99.6409
L354.9 99.4633
L354.9 99.3159
L354.9 99.3159
L354.9 99.3159
L354.9 99.5866
L354.9 99.5633
L354.9 99.5633
L355.12 98.8905
L355.12 98.9341
L355.12 99.1081
L355.12 99.0331
L355.12 99.0331
L355.267 98.7374
L355.267 98.7377
L355.413 98.6815
L355.413 98.7154
L355.633 98.4784
L355.633 98.487
L355.853 98.4532
L356.073 98.1081
L356.073 98.138
L356.366 97.7217
L356.366 97.8297
L356.366 98.0227
L356.366 98.0227
L356.366 98.0227
L356.439 97.439
L356.439 97.6802
L356.732 96.9436
L356.732 97.0505
L356.732 97.1578
L356.732 97.1526
L357.098 96.6939
L357.098 96.5967
L357.098 96.6907
L357.098 96.6907
L357.098 96.7137
L357.098 96.7137
L357.098 96.7137
L357.098 96.6904
L357.098 96.6904
L357.098 96.6904
L357.098 96.8004
L357.098 96.7708
L357.098 96.7708
L357.245 96.4822
L357.245 96.5393
L357.538 96.3141
L357.538 96.3897
L357.684 96.0966
L357.684 96.1066
L358.124 95.9355
L358.124 95.8249
L358.124 95.8249
L358.124 95.8249
L358.124 96.0022
L358.124 95.9901
L358.124 95.9901
L358.344 95.7546
L358.71 95.6
L358.71 95.6206
L359.003 95.4888
L359.003 95.5129
L359.003 95.5294
L359.003 95.5146
L359.003 95.5146
L359.003 95.5129
L359.003 95.5129
L359.003 95.5129
L359.003 95.5576
L359.003 95.5294
L359.003 95.5294
L359.516 95.1766
L359.516 95.1782
L359.809 94.9914
L359.809 94.9807
L359.809 94.9807
L359.809 94.9807
L359.809 95.0071
L359.809 94.9959
L360.102 94.8543
L360.102 94.8787
L360.322 94.6883
L360.322 94.8231
L360.541 94.0689
L360.541 94.3283
L360.541 94.6871
L360.541 94.3312
L360.541 94.3312
L360.761 93.5736
L360.761 93.6419
L360.761 93.8656
L360.761 93.8656
L360.761 93.8656
L360.834 93.5463
L360.834 93.5656
L361.567 93.2697
L361.567 93.321
L361.713 93.1769
L361.713 92.646
L361.713 92.646
L361.713 92.646
L361.713 93.1769
L361.713 93.1769
L361.713 93.1769
L361.713 92.6156
L361.713 92.646
L361.713 92.646
L361.713 93.2045
L361.713 93.1935
L361.713 93.1935
L361.86 92.5143
L361.86 92.5806
L362.08 92.5006
L362.08 92.5112
L362.226 92.4518
L362.226 92.4655
L362.446 92.0205
L362.446 92.0211
L362.739 91.9566
L362.739 92.0037
L362.886 91.7231
L362.886 91.7359
L362.959 91.7167
L362.959 91.7205
L363.105 91.4998
L363.105 91.5066
L363.252 91.4852
L363.252 91.4997
L363.398 91.2428
L363.398 91.2516
L363.691 91.203
L363.691 91.214
L363.911 90.8445
L363.911 90.9385
L365.303 90.197
L365.303 89.8688
L365.303 90.1965
L365.303 90.1965
L365.303 90.2068
L365.303 90.2068
L365.303 90.2068
L365.303 89.8544
L365.303 90.197
L365.303 90.197
L365.303 90.2211
L365.303 90.2093
L365.303 90.2093
L365.523 89.6483
L365.523 89.6483
L365.743 89.5451
L365.743 89.5941
L365.963 89.2538
L365.963 89.1652
L365.963 89.1652
L365.963 89.1652
L365.963 89.4445
L365.963 89.4365
L366.475 88.7129
L366.475 88.7213
L366.988 88.5794
L366.988 88.6018
L367.354 88.3179
L367.354 88.2878
L367.354 88.312
L367.354 88.312
L367.354 88.3897
L367.354 88.3568
L367.354 88.3568
L368.087 87.5032
L368.453 87.3609
L368.453 87.4087
L368.527 87.2235
L368.527 87.277
L368.966 87.0095
L368.966 86.9617
L368.966 86.9617
L368.966 86.9617
L368.966 87.0412
L368.966 87.0291
L368.966 87.0291
L369.259 86.7334
L369.259 86.7944
L369.259 86.8903
L369.259 86.7946
L369.259 86.7946
L369.332 86.7164
L369.332 86.7296
L369.479 85.8437
L369.479 85.8851
L369.699 85.7951
L369.992 85.6164
L369.992 85.6164
L369.992 85.6041
L369.992 85.6041
L369.992 85.6041
L369.992 85.6586
L369.992 85.6319
L369.992 85.6319
L370.358 85.3252
L370.358 85.3072
L370.358 85.3072
L370.358 85.3072
L370.358 85.332
L370.358 85.332
L370.358 85.332
L370.358 85.3072
L370.358 85.3117
L370.358 85.3117
L370.358 85.3859
L370.358 85.3366
L370.358 85.3366
L370.724 85.1544
L371.97 84.5195
L371.97 84.5367
L372.116 84.3625
L372.116 84.3734
L372.409 84.2697
L372.409 84.2744
L372.409 83.6026
L372.409 83.6026
L372.409 83.6026
L372.409 84.2863
L372.409 84.2815
L372.409 84.2815
L372.556 83.3551
L372.556 83.4682
L372.776 83.231
L372.776 83.2319
L372.922 83.1479
L372.922 83.1965
L373.069 82.4856
L373.069 82.526
L373.508 82.019
L373.508 82.019
L373.508 82.0629
L373.508 82.0629
L373.508 82.0629
L373.508 82.0165
L373.508 82.0321
L373.508 82.0321
L373.508 82.084
L373.508 82.0686
L373.508 82.0686
L373.801 81.7729
L373.801 81.7779
L374.021 81.6402
L374.021 81.6243
L374.021 81.6243
L374.021 81.6243
L374.021 81.6436
L374.021 81.6436
L374.021 81.6436
L374.021 81.6221
L374.021 81.6402
L374.021 81.6402
L374.021 81.6445
L374.021 81.6445
L374.021 81.6445
L374.021 81.6221
L374.021 81.6221
L374.021 81.6221
L374.021 81.6615
L374.021 81.6466
L374.021 81.6466
L374.387 81.3333
L374.387 81.3576
L374.387 81.4802
L374.387 81.4754
L374.387 81.4754
L374.68 80.9898
L374.68 80.9939
L374.68 81.0576
L374.68 81.0483
L374.68 81.0483
L375.266 80.6878
L375.266 80.688
L375.413 80.5788
L375.413 80.5788
L375.413 80.5445
L375.413 80.5445
L375.413 80.5445
L375.413 80.6847
L375.413 80.6766
L375.413 80.6766
L375.633 80.3622
L375.633 80.4478
L375.706 80.3337
L375.706 80.3511
L375.999 80.2868
L375.999 80.321
L376.439 79.6241
L376.439 79.6333
L376.439 79.7451
L376.439 79.6499
L376.439 79.6499
L377.025 79.3779
L377.025 79.378
L377.025 79.0727
L377.025 79.0727
L377.025 79.0727
L377.025 79.4077
L377.025 79.3901
L377.025 79.3901
L377.171 78.7938
L377.171 78.8019
L377.684 78.5406
L377.684 78.5697
L377.757 78.4376
L377.757 78.45
L378.05 78.3722
L378.05 78.2444
L378.05 78.2444
L378.05 78.2444
L378.05 78.3957
L378.05 78.3901
L378.05 78.3901
L378.27 77.9989
L378.27 78.088
L378.27 78.0422
L378.27 78.0422
L378.27 77.9355
L378.27 77.9355
L378.27 77.9355
L378.27 78.1072
L378.27 78.097
L378.27 78.097
L378.49 77.8375
L378.49 77.8444
L378.49 77.8954
L378.49 77.8683
L378.49 77.8683
L378.71 77.5727
L378.71 77.6092
L379.149 77.3298
L379.149 77.1429
L379.149 77.1429
L379.149 77.1429
L379.149 77.3298
L379.149 77.2355
L379.149 77.2355
L379.149 77.1245
L379.149 77.1246
L379.149 77.1246
L379.149 77.3516
L379.149 77.3371
L379.149 77.3371
L379.296 76.9668
L379.296 76.9832
L380.028 76.7156
L380.028 76.7379
L380.028 76.7797
L380.028 76.7388
L380.028 76.7388
L380.175 76.414
L380.175 76.4457
L380.395 76.3651
L380.541 76.2896
L380.541 76.3457
L381.054 75.7748
L381.054 75.7985
L381.127 75.7594
L381.127 75.555
L381.127 75.5558
L381.127 75.5558
L381.127 75.7743
L381.127 75.7668
L381.127 75.7668
L381.274 75.3977
L381.274 75.4225
L381.347 75.3509
L381.347 75.0017
L381.347 75.3509
L381.347 75.3509
L381.347 75.351
L381.347 75.351
L381.347 75.351
L381.347 74.9631
L381.347 74.9631
L381.347 74.9631
L381.347 75.3517
L381.347 75.3517
L381.347 75.3517
L381.347 74.9625
L381.347 74.9997
L381.347 74.9997
L381.347 75.3977
L381.347 75.3884
L381.64 74.7954
L381.64 74.8289
L381.64 74.925
L381.64 74.909
L381.64 74.909
L381.86 74.3277
L381.86 74.4627
L382.299 74.1755
L382.299 74.1784
L382.446 73.2029
L382.446 73.2224
L383.105 72.9812
L383.105 73.0035
L383.252 72.8988
L383.252 72.9175
L384.351 72.8065
L384.351 72.8894
L384.424 72.7363
L384.424 72.765
L384.57 72.7347
L385.156 71.7583
L385.156 71.8052
L385.156 71.9403
L385.156 71.9403
L385.156 71.9403
L385.23 71.6858
L385.23 71.7152
L385.816 71.0889
L385.816 71.2533
L385.962 70.8576
L385.962 70.8892
L386.255 70.6486
L386.255 70.7006
L386.329 70.5788
L386.329 70.6182
L386.548 69.8271
L386.768 69.7269
L386.768 69.7785
L386.915 69.1202
L386.915 69.1347
L387.354 68.8701
L387.354 68.8761
L387.354 68.8857
L387.354 68.8856
L387.354 68.8856
L387.354 68.7994
L387.354 68.7994
L387.354 68.7994
L387.354 68.8907
L387.354 68.8907
L387.354 68.8907
L387.574 68.7686
L387.574 68.7695
L387.867 68.6627
L387.867 68.6738
L388.014 68.2905
L388.014 68.3231
L388.233 68.1974
L388.233 68.2213
L388.6 67.4585
L388.6 67.4585
L388.746 67.4413
L388.746 67.4413
L388.746 67.313
L388.746 67.313
L388.746 67.313
L388.746 67.4537
L388.746 67.4505
L388.746 67.4505
L389.039 66.9546
L389.039 66.9845
L389.039 67.0012
L389.039 67.0011
L389.039 67.0011
L389.112 66.9528
L389.186 66.9515
L389.186 66.9526
L389.332 66.6793
L389.332 66.6793
L389.772 66.6236
L389.772 66.6348
L389.845 66.3308
L389.845 66.3316
L389.992 66.2861
L389.992 66.3214
L390.138 65.9043
L390.138 65.9066
L390.285 65.9043
L390.358 65.7643
L390.358 65.7791
L390.651 65.5616
L391.09 65.4087
L391.09 65.4117
L391.09 65.408
L391.09 65.408
L391.09 65.408
L391.09 65.4317
L391.09 65.4317
L391.09 65.4317
L391.09 65.3864
L391.09 65.4046
L391.09 65.4046
L391.09 65.4462
L391.09 65.4319
L391.75 65.1951
L391.896 64.2276
L391.896 64.2697
L392.409 63.8817
L392.409 63.9663
L392.409 63.9788
L392.409 63.9673
L392.409 63.9673
L392.409 63.9662
L392.409 63.9663
L392.409 63.9663
L392.409 63.9706
L392.409 63.9706
L392.409 63.9706
L392.629 63.5779
L392.629 63.6718
L392.629 63.6514
L392.922 63.4542
L392.922 63.4623
L393.068 63.2174
L393.068 63.2292
L394.021 62.661
L394.021 62.6911
L394.241 62.5278
L394.534 62.3013
L394.534 62.3972
L394.753 62.0201
L395.046 61.9645
L395.046 61.9783
L395.193 61.8595
L395.193 61.8679
L395.486 61.8157
L395.486 61.822
L395.633 61.4183
L395.633 61.4238
L396.219 61.2641
L396.219 61.2714
L396.438 61.0597
L396.438 61.0711
L396.438 61.1704
L396.438 61.1654
L396.438 61.1654
L396.512 61.0261
L396.512 61.0537
L397.757 60.5127
L397.757 60.5163
L398.197 60.3465
L398.197 60.358
L398.343 60.2095
L398.343 60.2132
L398.563 60.1883
L398.563 60.1946
L398.709 60.0043
L398.709 60.0238
L398.929 59.9922
L398.929 59.9922
L399.222 59.3534
L399.222 59.3625
L399.222 59.449
L399.222 59.3741
L399.222 59.3741
L399.515 59.0986
L399.515 59.2811
L399.662 58.9725
L399.662 58.9825
L399.882 58.9056
L399.882 58.9057
L400.028 58.7343
L400.028 58.898
L400.248 58.2421
L400.248 58.2532
L400.321 58.1892
L400.321 57.748
L400.321 57.748
L400.321 57.748
L400.321 58.2415
L400.321 58.2335
L400.321 58.2335
L400.468 57.7262
L400.687 57.6342
L400.687 57.6566
L400.834 57.5662
L400.834 57.5792
L400.98 57.5658
L401.127 57.1779
L401.127 57.2219
L401.2 57.1401
L401.2 56.9468
L401.2 57.1397
L401.2 57.1397
L401.2 57.1779
L401.2 57.1769
L401.2 57.1769
L401.347 56.8312
L401.347 56.8992
L401.64 56.6551
L401.64 56.6551
L401.64 56.1502
L401.64 56.1502
L401.64 56.1502
L401.64 56.766
L401.64 56.7641
L401.64 56.7641
L401.786 56.1136
L401.786 56.1148
L402.079 55.9473
L402.079 55.9594
L402.079 56.038
L402.079 56.0285
L402.079 56.0285
L402.153 55.9173
L402.153 55.9173
L402.153 55.3995
L402.153 55.3995
L402.153 55.3995
L402.153 55.9199
L402.153 55.9199
L402.153 55.9199
L402.153 55.3989
L402.153 55.3989
L402.153 55.3989
L402.153 55.9471
L402.153 55.9471
L402.153 55.9471
L402.299 55.3182
L402.299 55.3376
L403.105 55.0433
L403.105 55.0897
L403.325 54.7492
L403.325 54.778
L403.545 54.7061
L403.545 54.7085
L403.691 50.82
L403.691 50.8404
L403.838 50.4435
L403.838 50.4623
L404.204 50.3285
L404.204 50.3568
L404.204 50.3707
L404.204 50.3707
L404.204 50.3707
L404.277 50.2877
L404.277 50.2971
L404.424 50.0501
L404.424 50.0555
L404.936 49.9088
L404.936 49.9144
L404.936 49.8865
L404.936 49.9089
L404.936 49.9089
L404.936 49.9397
L404.936 49.9175
L405.229 49.8315
L405.229 49.8561
L405.376 49.4179
L405.376 49.4234
L405.449 49.3484
L405.449 49.4177
L405.889 49.2649
L405.889 49.2649
L405.889 49.0442
L405.889 49.0442
L405.889 49.0442
L405.889 49.2649
L405.889 49.2649
L405.889 49.2649
L405.889 49.0442
L405.889 49.0442
L405.889 49.0442
L405.889 49.2665
L405.889 49.2653
L405.889 49.2653
L406.035 48.9043
L406.841 48.7919
L406.841 48.7999
L407.281 48.4686
L407.281 48.4686
L407.281 48.3146
L407.281 48.4652
L407.281 48.4652
L407.281 48.5286
L407.281 48.5171
L407.281 48.5171
L407.427 47.4345
L407.427 47.5227
L407.501 47.4282
L407.501 47.4315
L407.867 47.346
L407.867 47.3818
L408.306 46.7534
L408.306 46.8581
L408.306 47.0798
L408.306 47.0794
L408.306 47.0794
L408.38 46.7448
L408.38 46.7465
L408.819 46.545
L408.819 46.2505
L408.819 46.5007
L408.819 46.5007
L408.819 46.604
L408.819 46.6017
L408.819 46.6017
L408.966 46.2277
L408.966 46.2336
L409.039 46.2218
L409.039 46.2274
L409.259 45.9255
L409.259 45.931
L409.259 46.0394
L409.259 46.0394
L409.259 46.0394
L409.259 45.931
L409.259 45.931
L409.259 45.931
L409.259 46.0455
L409.259 46.045
L409.259 46.045
L409.332 45.8949
L409.332 45.9101
L410.284 45.5755
L410.284 45.5937
L410.284 45.617
L410.284 45.597
L410.284 45.597
L410.504 44.6163
L410.504 44.6174
L410.504 45.0205
L410.504 44.6351
L410.504 44.6351
L410.87 44.5878
L410.87 44.5903
L410.87 44.6011
L410.87 44.5962
L410.87 44.5962
L411.457 44.4347
L411.457 44.4456
L411.457 44.474
L411.457 44.4484
L411.457 44.4484
L411.75 44.4057
L411.969 44.3755
L411.969 44.3805
L412.116 44.0126
L412.116 44.0194
L412.409 43.9595
L412.409 43.9679
L412.629 43.5079
L412.629 43.522
L412.922 43.3917
L412.922 43.4113
L413.068 43.2763
L413.068 43.2837
L414.021 43.0501
L414.021 43.0511
L414.167 42.9615
L414.167 42.9622
L414.826 42.8555
L420.614 41.777
L420.614 41.8053
L420.614 41.7778
L420.614 41.7778
L420.687 41.7744
L420.687 41.7753
L420.834 41.716
L420.834 41.7302
L421.2 41.6941
L421.2 41.6941" style="fill:none;stroke:#0000ff;stroke-linecap:square;"/>
   </g>
   <g id="patch_3">
    <path d="
M43.6219 21
L421.2 21" style="fill:none;stroke:#000000;stroke-linecap:square;stroke-linejoin:miter;"/>
   </g>
   <g id="patch_4">
    <path d="
M421.2 239.27
L421.2 21" style="fill:none;stroke:#000000;stroke-linecap:square;stroke-linejoin:miter;"/>
   </g>
   <g id="patch_5">
    <path d="
M43.6219 239.27
L421.2 239.27" style="fill:none;stroke:#000000;stroke-linecap:square;stroke-linejoin:miter;"/>
   </g>
   <g id="patch_6">
    <path d="
M43.6219 239.27
L43.6219 21" style="fill:none;stroke:#000000;stroke-linecap:square;stroke-linejoin:miter;"/>
   </g>
   <g id="matplotlib.axis_1">
    <g id="xtick_1">
     <g id="line2d_2">
      <path clip-path="url(#p460d2c0303)" d="
M68.8231 239.27
L68.8231 21" style="fill:none;stroke:#000000;stroke-dasharray:1.000000,3.000000;stroke-dashoffset:0.0;stroke-width:0.5;"/>
     </g>
     <g id="line2d_3">
      <defs>
       <path d="
M0 0
L0 -4" id="m93b0483c22" style="stroke:#000000;stroke-width:0.5;"/>
      </defs>
      <g>
       <use style="stroke:#000000;stroke-width:0.5;" x="68.8230536962" xlink:href="#m93b0483c22" y="239.269833866"/>
      </g>
     </g>
     <g id="line2d_4">
      <defs>
       <path d="
M0 0
L0 4" id="m741efc42ff" style="stroke:#000000;stroke-width:0.5;"/>
      </defs>
      <g>
       <use style="stroke:#000000;stroke-width:0.5;" x="68.8230536962" xlink:href="#m741efc42ff" y="21.0"/>
      </g>
     </g>
     <g id="text_1">
      <!-- 2002 -->
      <defs>
       <path d="
M19.1875 8.29688
L53.6094 8.29688
L53.6094 0
L7.32812 0
L7.32812 8.29688
Q12.9375 14.1094 22.625 23.8906
Q32.3281 33.6875 34.8125 36.5312
Q39.5469 41.8438 41.4219 45.5312
Q43.3125 49.2188 43.3125 52.7812
Q43.3125 58.5938 39.2344 62.25
Q35.1562 65.9219 28.6094 65.9219
Q23.9688 65.9219 18.8125 64.3125
Q13.6719 62.7031 7.8125 59.4219
L7.8125 69.3906
Q13.7656 71.7812 18.9375 73
Q24.125 74.2188 28.4219 74.2188
Q39.75 74.2188 46.4844 68.5469
Q53.2188 62.8906 53.2188 53.4219
Q53.2188 48.9219 51.5312 44.8906
Q49.8594 40.875 45.4062 35.4062
Q44.1875 33.9844 37.6406 27.2188
Q31.1094 20.4531 19.1875 8.29688" id="BitstreamVeraSans-Roman-32"/>
       <path d="
M31.7812 66.4062
Q24.1719 66.4062 20.3281 58.9062
Q16.5 51.4219 16.5 36.375
Q16.5 21.3906 20.3281 13.8906
Q24.1719 6.39062 31.7812 6.39062
Q39.4531 6.39062 43.2812 13.8906
Q47.125 21.3906 47.125 36.375
Q47.125 51.4219 43.2812 58.9062
Q39.4531 66.4062 31.7812 66.4062
M31.7812 74.2188
Q44.0469 74.2188 50.5156 64.5156
Q56.9844 54.8281 56.9844 36.375
Q56.9844 17.9688 50.5156 8.26562
Q44.0469 -1.42188 31.7812 -1.42188
Q19.5312 -1.42188 13.0625 8.26562
Q6.59375 17.9688 6.59375 36.375
Q6.59375 54.8281 13.0625 64.5156
Q19.5312 74.2188 31.7812 74.2188" id="BitstreamVeraSans-Roman-30"/>
      </defs>
      <g transform="translate(47.2448762295 261.70808627)rotate(-30.0)scale(0.1 -0.1)">
       <use xlink:href="#BitstreamVeraSans-Roman-32"/>
       <use x="63.623046875" xlink:href="#BitstreamVeraSans-Roman-30"/>
       <use x="127.24609375" xlink:href="#BitstreamVeraSans-Roman-30"/>
       <use x="190.869140625" xlink:href="#BitstreamVeraSans-Roman-32"/>
      </g>
     </g>
    </g>
    <g id="xtick_2">
     <g id="line2d_5">
      <path clip-path="url(#p460d2c0303)" d="
M122.302 239.27
L122.302 21" style="fill:none;stroke:#000000;stroke-dasharray:1.000000,3.000000;stroke-dashoffset:0.0;stroke-width:0.5;"/>
     </g>
     <g id="line2d_6">
      <g>
       <use style="stroke:#000000;stroke-width:0.5;" x="122.302299185" xlink:href="#m93b0483c22" y="239.269833866"/>
      </g>
     </g>
     <g id="line2d_7">
      <g>
       <use style="stroke:#000000;stroke-width:0.5;" x="122.302299185" xlink:href="#m741efc42ff" y="21.0"/>
      </g>
     </g>
     <g id="text_2">
      <!-- 2004 -->
      <defs>
       <path d="
M37.7969 64.3125
L12.8906 25.3906
L37.7969 25.3906
z

M35.2031 72.9062
L47.6094 72.9062
L47.6094 25.3906
L58.0156 25.3906
L58.0156 17.1875
L47.6094 17.1875
L47.6094 0
L37.7969 0
L37.7969 17.1875
L4.89062 17.1875
L4.89062 26.7031
z
" id="BitstreamVeraSans-Roman-34"/>
      </defs>
      <g transform="translate(100.342529275 261.92839877)rotate(-30.0)scale(0.1 -0.1)">
       <use xlink:href="#BitstreamVeraSans-Roman-32"/>
       <use x="63.623046875" xlink:href="#BitstreamVeraSans-Roman-30"/>
       <use x="127.24609375" xlink:href="#BitstreamVeraSans-Roman-30"/>
       <use x="190.869140625" xlink:href="#BitstreamVeraSans-Roman-34"/>
      </g>
     </g>
    </g>
    <g id="xtick_3">
     <g id="line2d_8">
      <path clip-path="url(#p460d2c0303)" d="
M175.855 239.27
L175.855 21" style="fill:none;stroke:#000000;stroke-dasharray:1.000000,3.000000;stroke-dashoffset:0.0;stroke-width:0.5;"/>
     </g>
     <g id="line2d_9">
      <g>
       <use style="stroke:#000000;stroke-width:0.5;" x="175.854803914" xlink:href="#m93b0483c22" y="239.269833866"/>
      </g>
     </g>
     <g id="line2d_10">
      <g>
       <use style="stroke:#000000;stroke-width:0.5;" x="175.854803914" xlink:href="#m741efc42ff" y="21.0"/>
      </g>
     </g>
     <g id="text_3">
      <!-- 2006 -->
      <defs>
       <path d="
M33.0156 40.375
Q26.375 40.375 22.4844 35.8281
Q18.6094 31.2969 18.6094 23.3906
Q18.6094 15.5312 22.4844 10.9531
Q26.375 6.39062 33.0156 6.39062
Q39.6562 6.39062 43.5312 10.9531
Q47.4062 15.5312 47.4062 23.3906
Q47.4062 31.2969 43.5312 35.8281
Q39.6562 40.375 33.0156 40.375
M52.5938 71.2969
L52.5938 62.3125
Q48.875 64.0625 45.0938 64.9844
Q41.3125 65.9219 37.5938 65.9219
Q27.8281 65.9219 22.6719 59.3281
Q17.5312 52.7344 16.7969 39.4062
Q19.6719 43.6562 24.0156 45.9219
Q28.375 48.1875 33.5938 48.1875
Q44.5781 48.1875 50.9531 41.5156
Q57.3281 34.8594 57.3281 23.3906
Q57.3281 12.1562 50.6875 5.35938
Q44.0469 -1.42188 33.0156 -1.42188
Q20.3594 -1.42188 13.6719 8.26562
Q6.98438 17.9688 6.98438 36.375
Q6.98438 53.6562 15.1875 63.9375
Q23.3906 74.2188 37.2031 74.2188
Q40.9219 74.2188 44.7031 73.4844
Q48.4844 72.75 52.5938 71.2969" id="BitstreamVeraSans-Roman-36"/>
      </defs>
      <g transform="translate(153.954573251 261.89402377)rotate(-30.0)scale(0.1 -0.1)">
       <use xlink:href="#BitstreamVeraSans-Roman-32"/>
       <use x="63.623046875" xlink:href="#BitstreamVeraSans-Roman-30"/>
       <use x="127.24609375" xlink:href="#BitstreamVeraSans-Roman-30"/>
       <use x="190.869140625" xlink:href="#BitstreamVeraSans-Roman-36"/>
      </g>
     </g>
    </g>
    <g id="xtick_4">
     <g id="line2d_11">
      <path clip-path="url(#p460d2c0303)" d="
M229.334 239.27
L229.334 21" style="fill:none;stroke:#000000;stroke-dasharray:1.000000,3.000000;stroke-dashoffset:0.0;stroke-width:0.5;"/>
     </g>
     <g id="line2d_12">
      <g>
       <use style="stroke:#000000;stroke-width:0.5;" x="229.334049403" xlink:href="#m93b0483c22" y="239.269833866"/>
      </g>
     </g>
     <g id="line2d_13">
      <g>
       <use style="stroke:#000000;stroke-width:0.5;" x="229.334049403" xlink:href="#m741efc42ff" y="21.0"/>
      </g>
     </g>
     <g id="text_4">
      <!-- 2008 -->
      <defs>
       <path d="
M31.7812 34.625
Q24.75 34.625 20.7188 30.8594
Q16.7031 27.0938 16.7031 20.5156
Q16.7031 13.9219 20.7188 10.1562
Q24.75 6.39062 31.7812 6.39062
Q38.8125 6.39062 42.8594 10.1719
Q46.9219 13.9688 46.9219 20.5156
Q46.9219 27.0938 42.8906 30.8594
Q38.875 34.625 31.7812 34.625
M21.9219 38.8125
Q15.5781 40.375 12.0312 44.7188
Q8.5 49.0781 8.5 55.3281
Q8.5 64.0625 14.7188 69.1406
Q20.9531 74.2188 31.7812 74.2188
Q42.6719 74.2188 48.875 69.1406
Q55.0781 64.0625 55.0781 55.3281
Q55.0781 49.0781 51.5312 44.7188
Q48 40.375 41.7031 38.8125
Q48.8281 37.1562 52.7969 32.3125
Q56.7812 27.4844 56.7812 20.5156
Q56.7812 9.90625 50.3125 4.23438
Q43.8438 -1.42188 31.7812 -1.42188
Q19.7344 -1.42188 13.25 4.23438
Q6.78125 9.90625 6.78125 20.5156
Q6.78125 27.4844 10.7812 32.3125
Q14.7969 37.1562 21.9219 38.8125
M18.3125 54.3906
Q18.3125 48.7344 21.8438 45.5625
Q25.3906 42.3906 31.7812 42.3906
Q38.1406 42.3906 41.7188 45.5625
Q45.3125 48.7344 45.3125 54.3906
Q45.3125 60.0625 41.7188 63.2344
Q38.1406 66.4062 31.7812 66.4062
Q25.3906 66.4062 21.8438 63.2344
Q18.3125 60.0625 18.3125 54.3906" id="BitstreamVeraSans-Roman-38"/>
      </defs>
      <g transform="translate(207.481179504 261.86668002)rotate(-30.0)scale(0.1 -0.1)">
       <use xlink:href="#BitstreamVeraSans-Roman-32"/>
       <use x="63.623046875" xlink:href="#BitstreamVeraSans-Roman-30"/>
       <use x="127.24609375" xlink:href="#BitstreamVeraSans-Roman-30"/>
       <use x="190.869140625" xlink:href="#BitstreamVeraSans-Roman-38"/>
      </g>
     </g>
    </g>
    <g id="xtick_5">
     <g id="line2d_14">
      <path clip-path="url(#p460d2c0303)" d="
M282.887 239.27
L282.887 21" style="fill:none;stroke:#000000;stroke-dasharray:1.000000,3.000000;stroke-dashoffset:0.0;stroke-width:0.5;"/>
     </g>
     <g id="line2d_15">
      <g>
       <use style="stroke:#000000;stroke-width:0.5;" x="282.886554133" xlink:href="#m93b0483c22" y="239.269833866"/>
      </g>
     </g>
     <g id="line2d_16">
      <g>
       <use style="stroke:#000000;stroke-width:0.5;" x="282.886554133" xlink:href="#m741efc42ff" y="21.0"/>
      </g>
     </g>
     <g id="text_5">
      <!-- 2010 -->
      <defs>
       <path d="
M12.4062 8.29688
L28.5156 8.29688
L28.5156 63.9219
L10.9844 60.4062
L10.9844 69.3906
L28.4219 72.9062
L38.2812 72.9062
L38.2812 8.29688
L54.3906 8.29688
L54.3906 0
L12.4062 0
z
" id="BitstreamVeraSans-Roman-31"/>
      </defs>
      <g transform="translate(261.016093092 261.87683627)rotate(-30.0)scale(0.1 -0.1)">
       <use xlink:href="#BitstreamVeraSans-Roman-32"/>
       <use x="63.623046875" xlink:href="#BitstreamVeraSans-Roman-30"/>
       <use x="127.24609375" xlink:href="#BitstreamVeraSans-Roman-31"/>
       <use x="190.869140625" xlink:href="#BitstreamVeraSans-Roman-30"/>
      </g>
     </g>
    </g>
    <g id="xtick_6">
     <g id="line2d_17">
      <path clip-path="url(#p460d2c0303)" d="
M336.366 239.27
L336.366 21" style="fill:none;stroke:#000000;stroke-dasharray:1.000000,3.000000;stroke-dashoffset:0.0;stroke-width:0.5;"/>
     </g>
     <g id="line2d_18">
      <g>
       <use style="stroke:#000000;stroke-width:0.5;" x="336.365799622" xlink:href="#m93b0483c22" y="239.269833866"/>
      </g>
     </g>
     <g id="line2d_19">
      <g>
       <use style="stroke:#000000;stroke-width:0.5;" x="336.365799622" xlink:href="#m741efc42ff" y="21.0"/>
      </g>
     </g>
     <g id="text_6">
      <!-- 2012 -->
      <g transform="translate(314.787622155 261.70808627)rotate(-30.0)scale(0.1 -0.1)">
       <use xlink:href="#BitstreamVeraSans-Roman-32"/>
       <use x="63.623046875" xlink:href="#BitstreamVeraSans-Roman-30"/>
       <use x="127.24609375" xlink:href="#BitstreamVeraSans-Roman-31"/>
       <use x="190.869140625" xlink:href="#BitstreamVeraSans-Roman-32"/>
      </g>
     </g>
    </g>
    <g id="xtick_7">
     <g id="line2d_20">
      <path clip-path="url(#p460d2c0303)" d="
M389.918 239.27
L389.918 21" style="fill:none;stroke:#000000;stroke-dasharray:1.000000,3.000000;stroke-dashoffset:0.0;stroke-width:0.5;"/>
     </g>
     <g id="line2d_21">
      <g>
       <use style="stroke:#000000;stroke-width:0.5;" x="389.918304351" xlink:href="#m93b0483c22" y="239.269833866"/>
      </g>
     </g>
     <g id="line2d_22">
      <g>
       <use style="stroke:#000000;stroke-width:0.5;" x="389.918304351" xlink:href="#m741efc42ff" y="21.0"/>
      </g>
     </g>
     <g id="text_7">
      <!-- 2014 -->
      <g transform="translate(367.958534441 261.92839877)rotate(-30.0)scale(0.1 -0.1)">
       <use xlink:href="#BitstreamVeraSans-Roman-32"/>
       <use x="63.623046875" xlink:href="#BitstreamVeraSans-Roman-30"/>
       <use x="127.24609375" xlink:href="#BitstreamVeraSans-Roman-31"/>
       <use x="190.869140625" xlink:href="#BitstreamVeraSans-Roman-34"/>
      </g>
     </g>
    </g>
    <g id="text_8">
     <!-- date -->
     <defs>
      <path d="
M56.2031 29.5938
L56.2031 25.2031
L14.8906 25.2031
Q15.4844 15.9219 20.4844 11.0625
Q25.4844 6.20312 34.4219 6.20312
Q39.5938 6.20312 44.4531 7.46875
Q49.3125 8.73438 54.1094 11.2812
L54.1094 2.78125
Q49.2656 0.734375 44.1875 -0.34375
Q39.1094 -1.42188 33.8906 -1.42188
Q20.7969 -1.42188 13.1562 6.1875
Q5.51562 13.8125 5.51562 26.8125
Q5.51562 40.2344 12.7656 48.1094
Q20.0156 56 32.3281 56
Q43.3594 56 49.7812 48.8906
Q56.2031 41.7969 56.2031 29.5938
M47.2188 32.2344
Q47.125 39.5938 43.0938 43.9844
Q39.0625 48.3906 32.4219 48.3906
Q24.9062 48.3906 20.3906 44.1406
Q15.875 39.8906 15.1875 32.1719
z
" id="BitstreamVeraSans-Roman-65"/>
      <path d="
M45.4062 46.3906
L45.4062 75.9844
L54.3906 75.9844
L54.3906 0
L45.4062 0
L45.4062 8.20312
Q42.5781 3.32812 38.25 0.953125
Q33.9375 -1.42188 27.875 -1.42188
Q17.9688 -1.42188 11.7344 6.48438
Q5.51562 14.4062 5.51562 27.2969
Q5.51562 40.1875 11.7344 48.0938
Q17.9688 56 27.875 56
Q33.9375 56 38.25 53.625
Q42.5781 51.2656 45.4062 46.3906
M14.7969 27.2969
Q14.7969 17.3906 18.875 11.75
Q22.9531 6.10938 30.0781 6.10938
Q37.2031 6.10938 41.2969 11.75
Q45.4062 17.3906 45.4062 27.2969
Q45.4062 37.2031 41.2969 42.8438
Q37.2031 48.4844 30.0781 48.4844
Q22.9531 48.4844 18.875 42.8438
Q14.7969 37.2031 14.7969 27.2969" id="BitstreamVeraSans-Roman-64"/>
      <path d="
M18.3125 70.2188
L18.3125 54.6875
L36.8125 54.6875
L36.8125 47.7031
L18.3125 47.7031
L18.3125 18.0156
Q18.3125 11.3281 20.1406 9.42188
Q21.9688 7.51562 27.5938 7.51562
L36.8125 7.51562
L36.8125 0
L27.5938 0
Q17.1875 0 13.2344 3.875
Q9.28125 7.76562 9.28125 18.0156
L9.28125 47.7031
L2.6875 47.7031
L2.6875 54.6875
L9.28125 54.6875
L9.28125 70.2188
z
" id="BitstreamVeraSans-Roman-74"/>
      <path d="
M34.2812 27.4844
Q23.3906 27.4844 19.1875 25
Q14.9844 22.5156 14.9844 16.5
Q14.9844 11.7188 18.1406 8.90625
Q21.2969 6.10938 26.7031 6.10938
Q34.1875 6.10938 38.7031 11.4062
Q43.2188 16.7031 43.2188 25.4844
L43.2188 27.4844
z

M52.2031 31.2031
L52.2031 0
L43.2188 0
L43.2188 8.29688
Q40.1406 3.32812 35.5469 0.953125
Q30.9531 -1.42188 24.3125 -1.42188
Q15.9219 -1.42188 10.9531 3.29688
Q6 8.01562 6 15.9219
Q6 25.1406 12.1719 29.8281
Q18.3594 34.5156 30.6094 34.5156
L43.2188 34.5156
L43.2188 35.4062
Q43.2188 41.6094 39.1406 45
Q35.0625 48.3906 27.6875 48.3906
Q23 48.3906 18.5469 47.2656
Q14.1094 46.1406 10.0156 43.8906
L10.0156 52.2031
Q14.9375 54.1094 19.5781 55.0469
Q24.2188 56 28.6094 56
Q40.4844 56 46.3438 49.8438
Q52.2031 43.7031 52.2031 31.2031" id="BitstreamVeraSans-Roman-61"/>
     </defs>
     <g transform="translate(221.678125 276.327898477)scale(0.1 -0.1)">
      <use xlink:href="#BitstreamVeraSans-Roman-64"/>
      <use x="63.4765625" xlink:href="#BitstreamVeraSans-Roman-61"/>
      <use x="124.755859375" xlink:href="#BitstreamVeraSans-Roman-74"/>
      <use x="163.96484375" xlink:href="#BitstreamVeraSans-Roman-65"/>
     </g>
    </g>
   </g>
   <g id="matplotlib.axis_2">
    <g id="ytick_1">
     <g id="line2d_23">
      <path clip-path="url(#p460d2c0303)" d="
M43.6219 239.27
L421.2 239.27" style="fill:none;stroke:#000000;stroke-dasharray:1.000000,3.000000;stroke-dashoffset:0.0;stroke-width:0.5;"/>
     </g>
     <g id="line2d_24">
      <defs>
       <path d="
M0 0
L4 0" id="m728421d6d4" style="stroke:#000000;stroke-width:0.5;"/>
      </defs>
      <g>
       <use style="stroke:#000000;stroke-width:0.5;" x="43.621875" xlink:href="#m728421d6d4" y="239.269833866"/>
      </g>
     </g>
     <g id="line2d_25">
      <defs>
       <path d="
M0 0
L-4 0" id="mcb0005524f" style="stroke:#000000;stroke-width:0.5;"/>
      </defs>
      <g>
       <use style="stroke:#000000;stroke-width:0.5;" x="421.2" xlink:href="#mcb0005524f" y="239.269833866"/>
      </g>
     </g>
     <g id="text_9">
      <!-- 0.0 -->
      <defs>
       <path d="
M10.6875 12.4062
L21 12.4062
L21 0
L10.6875 0
z
" id="BitstreamVeraSans-Roman-2e"/>
      </defs>
      <g transform="translate(25.0421875 242.029208866)scale(0.1 -0.1)">
       <use xlink:href="#BitstreamVeraSans-Roman-30"/>
       <use x="63.623046875" xlink:href="#BitstreamVeraSans-Roman-2e"/>
       <use x="95.41015625" xlink:href="#BitstreamVeraSans-Roman-30"/>
      </g>
     </g>
    </g>
    <g id="ytick_2">
     <g id="line2d_26">
      <path clip-path="url(#p460d2c0303)" d="
M43.6219 208.088
L421.2 208.088" style="fill:none;stroke:#000000;stroke-dasharray:1.000000,3.000000;stroke-dashoffset:0.0;stroke-width:0.5;"/>
     </g>
     <g id="line2d_27">
      <g>
       <use style="stroke:#000000;stroke-width:0.5;" x="43.621875" xlink:href="#m728421d6d4" y="208.088429028"/>
      </g>
     </g>
     <g id="line2d_28">
      <g>
       <use style="stroke:#000000;stroke-width:0.5;" x="421.2" xlink:href="#mcb0005524f" y="208.088429028"/>
      </g>
     </g>
     <g id="text_10">
      <!-- 0.2 -->
      <g transform="translate(25.3796875 210.847804028)scale(0.1 -0.1)">
       <use xlink:href="#BitstreamVeraSans-Roman-30"/>
       <use x="63.623046875" xlink:href="#BitstreamVeraSans-Roman-2e"/>
       <use x="95.41015625" xlink:href="#BitstreamVeraSans-Roman-32"/>
      </g>
     </g>
    </g>
    <g id="ytick_3">
     <g id="line2d_29">
      <path clip-path="url(#p460d2c0303)" d="
M43.6219 176.907
L421.2 176.907" style="fill:none;stroke:#000000;stroke-dasharray:1.000000,3.000000;stroke-dashoffset:0.0;stroke-width:0.5;"/>
     </g>
     <g id="line2d_30">
      <g>
       <use style="stroke:#000000;stroke-width:0.5;" x="43.621875" xlink:href="#m728421d6d4" y="176.90702419"/>
      </g>
     </g>
     <g id="line2d_31">
      <g>
       <use style="stroke:#000000;stroke-width:0.5;" x="421.2" xlink:href="#mcb0005524f" y="176.90702419"/>
      </g>
     </g>
     <g id="text_11">
      <!-- 0.4 -->
      <g transform="translate(24.9390625 179.66639919)scale(0.1 -0.1)">
       <use xlink:href="#BitstreamVeraSans-Roman-30"/>
       <use x="63.623046875" xlink:href="#BitstreamVeraSans-Roman-2e"/>
       <use x="95.41015625" xlink:href="#BitstreamVeraSans-Roman-34"/>
      </g>
     </g>
    </g>
    <g id="ytick_4">
     <g id="line2d_32">
      <path clip-path="url(#p460d2c0303)" d="
M43.6219 145.726
L421.2 145.726" style="fill:none;stroke:#000000;stroke-dasharray:1.000000,3.000000;stroke-dashoffset:0.0;stroke-width:0.5;"/>
     </g>
     <g id="line2d_33">
      <g>
       <use style="stroke:#000000;stroke-width:0.5;" x="43.621875" xlink:href="#m728421d6d4" y="145.725619352"/>
      </g>
     </g>
     <g id="line2d_34">
      <g>
       <use style="stroke:#000000;stroke-width:0.5;" x="421.2" xlink:href="#mcb0005524f" y="145.725619352"/>
      </g>
     </g>
     <g id="text_12">
      <!-- 0.6 -->
      <g transform="translate(25.0078125 148.484994352)scale(0.1 -0.1)">
       <use xlink:href="#BitstreamVeraSans-Roman-30"/>
       <use x="63.623046875" xlink:href="#BitstreamVeraSans-Roman-2e"/>
       <use x="95.41015625" xlink:href="#BitstreamVeraSans-Roman-36"/>
      </g>
     </g>
    </g>
    <g id="ytick_5">
     <g id="line2d_35">
      <path clip-path="url(#p460d2c0303)" d="
M43.6219 114.544
L421.2 114.544" style="fill:none;stroke:#000000;stroke-dasharray:1.000000,3.000000;stroke-dashoffset:0.0;stroke-width:0.5;"/>
     </g>
     <g id="line2d_36">
      <g>
       <use style="stroke:#000000;stroke-width:0.5;" x="43.621875" xlink:href="#m728421d6d4" y="114.544214514"/>
      </g>
     </g>
     <g id="line2d_37">
      <g>
       <use style="stroke:#000000;stroke-width:0.5;" x="421.2" xlink:href="#mcb0005524f" y="114.544214514"/>
      </g>
     </g>
     <g id="text_13">
      <!-- 0.8 -->
      <g transform="translate(25.0625 117.303589514)scale(0.1 -0.1)">
       <use xlink:href="#BitstreamVeraSans-Roman-30"/>
       <use x="63.623046875" xlink:href="#BitstreamVeraSans-Roman-2e"/>
       <use x="95.41015625" xlink:href="#BitstreamVeraSans-Roman-38"/>
      </g>
     </g>
    </g>
    <g id="ytick_6">
     <g id="line2d_38">
      <path clip-path="url(#p460d2c0303)" d="
M43.6219 83.3628
L421.2 83.3628" style="fill:none;stroke:#000000;stroke-dasharray:1.000000,3.000000;stroke-dashoffset:0.0;stroke-width:0.5;"/>
     </g>
     <g id="line2d_39">
      <g>
       <use style="stroke:#000000;stroke-width:0.5;" x="43.621875" xlink:href="#m728421d6d4" y="83.362809676"/>
      </g>
     </g>
     <g id="line2d_40">
      <g>
       <use style="stroke:#000000;stroke-width:0.5;" x="421.2" xlink:href="#mcb0005524f" y="83.362809676"/>
      </g>
     </g>
     <g id="text_14">
      <!-- 1.0 -->
      <g transform="translate(25.48125 86.122184676)scale(0.1 -0.1)">
       <use xlink:href="#BitstreamVeraSans-Roman-31"/>
       <use x="63.623046875" xlink:href="#BitstreamVeraSans-Roman-2e"/>
       <use x="95.41015625" xlink:href="#BitstreamVeraSans-Roman-30"/>
      </g>
     </g>
    </g>
    <g id="ytick_7">
     <g id="line2d_41">
      <path clip-path="url(#p460d2c0303)" d="
M43.6219 52.1814
L421.2 52.1814" style="fill:none;stroke:#000000;stroke-dasharray:1.000000,3.000000;stroke-dashoffset:0.0;stroke-width:0.5;"/>
     </g>
     <g id="line2d_42">
      <g>
       <use style="stroke:#000000;stroke-width:0.5;" x="43.621875" xlink:href="#m728421d6d4" y="52.181404838"/>
      </g>
     </g>
     <g id="line2d_43">
      <g>
       <use style="stroke:#000000;stroke-width:0.5;" x="421.2" xlink:href="#mcb0005524f" y="52.181404838"/>
      </g>
     </g>
     <g id="text_15">
      <!-- 1.2 -->
      <g transform="translate(25.81875 54.940779838)scale(0.1 -0.1)">
       <use xlink:href="#BitstreamVeraSans-Roman-31"/>
       <use x="63.623046875" xlink:href="#BitstreamVeraSans-Roman-2e"/>
       <use x="95.41015625" xlink:href="#BitstreamVeraSans-Roman-32"/>
      </g>
     </g>
    </g>
    <g id="ytick_8">
     <g id="line2d_44">
      <path clip-path="url(#p460d2c0303)" d="
M43.6219 21
L421.2 21" style="fill:none;stroke:#000000;stroke-dasharray:1.000000,3.000000;stroke-dashoffset:0.0;stroke-width:0.5;"/>
     </g>
     <g id="line2d_45">
      <g>
       <use style="stroke:#000000;stroke-width:0.5;" x="43.621875" xlink:href="#m728421d6d4" y="21.0"/>
      </g>
     </g>
     <g id="line2d_46">
      <g>
       <use style="stroke:#000000;stroke-width:0.5;" x="421.2" xlink:href="#mcb0005524f" y="21.0"/>
      </g>
     </g>
     <g id="text_16">
      <!-- 1.4 -->
      <g transform="translate(25.378125 23.759375)scale(0.1 -0.1)">
       <use xlink:href="#BitstreamVeraSans-Roman-31"/>
       <use x="63.623046875" xlink:href="#BitstreamVeraSans-Roman-2e"/>
       <use x="95.41015625" xlink:href="#BitstreamVeraSans-Roman-34"/>
      </g>
     </g>
    </g>
    <g id="text_17">
     <!-- x100 billion points -->
     <defs>
      <path id="BitstreamVeraSans-Roman-20"/>
      <path d="
M54.8906 33.0156
L54.8906 0
L45.9062 0
L45.9062 32.7188
Q45.9062 40.4844 42.875 44.3281
Q39.8438 48.1875 33.7969 48.1875
Q26.5156 48.1875 22.3125 43.5469
Q18.1094 38.9219 18.1094 30.9062
L18.1094 0
L9.07812 0
L9.07812 54.6875
L18.1094 54.6875
L18.1094 46.1875
Q21.3438 51.125 25.7031 53.5625
Q30.0781 56 35.7969 56
Q45.2188 56 50.0469 50.1719
Q54.8906 44.3438 54.8906 33.0156" id="BitstreamVeraSans-Roman-6e"/>
      <path d="
M30.6094 48.3906
Q23.3906 48.3906 19.1875 42.75
Q14.9844 37.1094 14.9844 27.2969
Q14.9844 17.4844 19.1562 11.8438
Q23.3438 6.20312 30.6094 6.20312
Q37.7969 6.20312 41.9844 11.8594
Q46.1875 17.5312 46.1875 27.2969
Q46.1875 37.0156 41.9844 42.7031
Q37.7969 48.3906 30.6094 48.3906
M30.6094 56
Q42.3281 56 49.0156 48.375
Q55.7188 40.7656 55.7188 27.2969
Q55.7188 13.875 49.0156 6.21875
Q42.3281 -1.42188 30.6094 -1.42188
Q18.8438 -1.42188 12.1719 6.21875
Q5.51562 13.875 5.51562 27.2969
Q5.51562 40.7656 12.1719 48.375
Q18.8438 56 30.6094 56" id="BitstreamVeraSans-Roman-6f"/>
      <path d="
M9.42188 75.9844
L18.4062 75.9844
L18.4062 0
L9.42188 0
z
" id="BitstreamVeraSans-Roman-6c"/>
      <path d="
M9.42188 54.6875
L18.4062 54.6875
L18.4062 0
L9.42188 0
z

M9.42188 75.9844
L18.4062 75.9844
L18.4062 64.5938
L9.42188 64.5938
z
" id="BitstreamVeraSans-Roman-69"/>
      <path d="
M54.8906 54.6875
L35.1094 28.0781
L55.9062 0
L45.3125 0
L29.3906 21.4844
L13.4844 0
L2.875 0
L24.125 28.6094
L4.6875 54.6875
L15.2812 54.6875
L29.7812 35.2031
L44.2812 54.6875
z
" id="BitstreamVeraSans-Roman-78"/>
      <path d="
M44.2812 53.0781
L44.2812 44.5781
Q40.4844 46.5312 36.375 47.5
Q32.2812 48.4844 27.875 48.4844
Q21.1875 48.4844 17.8438 46.4375
Q14.5 44.3906 14.5 40.2812
Q14.5 37.1562 16.8906 35.375
Q19.2812 33.5938 26.5156 31.9844
L29.5938 31.2969
Q39.1562 29.25 43.1875 25.5156
Q47.2188 21.7812 47.2188 15.0938
Q47.2188 7.46875 41.1875 3.01562
Q35.1562 -1.42188 24.6094 -1.42188
Q20.2188 -1.42188 15.4531 -0.5625
Q10.6875 0.296875 5.42188 2
L5.42188 11.2812
Q10.4062 8.6875 15.2344 7.39062
Q20.0625 6.10938 24.8125 6.10938
Q31.1562 6.10938 34.5625 8.28125
Q37.9844 10.4531 37.9844 14.4062
Q37.9844 18.0625 35.5156 20.0156
Q33.0625 21.9688 24.7031 23.7812
L21.5781 24.5156
Q13.2344 26.2656 9.51562 29.9062
Q5.8125 33.5469 5.8125 39.8906
Q5.8125 47.6094 11.2812 51.7969
Q16.75 56 26.8125 56
Q31.7812 56 36.1719 55.2656
Q40.5781 54.5469 44.2812 53.0781" id="BitstreamVeraSans-Roman-73"/>
      <path d="
M18.1094 8.20312
L18.1094 -20.7969
L9.07812 -20.7969
L9.07812 54.6875
L18.1094 54.6875
L18.1094 46.3906
Q20.9531 51.2656 25.2656 53.625
Q29.5938 56 35.5938 56
Q45.5625 56 51.7812 48.0938
Q58.0156 40.1875 58.0156 27.2969
Q58.0156 14.4062 51.7812 6.48438
Q45.5625 -1.42188 35.5938 -1.42188
Q29.5938 -1.42188 25.2656 0.953125
Q20.9531 3.32812 18.1094 8.20312
M48.6875 27.2969
Q48.6875 37.2031 44.6094 42.8438
Q40.5312 48.4844 33.4062 48.4844
Q26.2656 48.4844 22.1875 42.8438
Q18.1094 37.2031 18.1094 27.2969
Q18.1094 17.3906 22.1875 11.75
Q26.2656 6.10938 33.4062 6.10938
Q40.5312 6.10938 44.6094 11.75
Q48.6875 17.3906 48.6875 27.2969" id="BitstreamVeraSans-Roman-70"/>
      <path d="
M48.6875 27.2969
Q48.6875 37.2031 44.6094 42.8438
Q40.5312 48.4844 33.4062 48.4844
Q26.2656 48.4844 22.1875 42.8438
Q18.1094 37.2031 18.1094 27.2969
Q18.1094 17.3906 22.1875 11.75
Q26.2656 6.10938 33.4062 6.10938
Q40.5312 6.10938 44.6094 11.75
Q48.6875 17.3906 48.6875 27.2969
M18.1094 46.3906
Q20.9531 51.2656 25.2656 53.625
Q29.5938 56 35.5938 56
Q45.5625 56 51.7812 48.0938
Q58.0156 40.1875 58.0156 27.2969
Q58.0156 14.4062 51.7812 6.48438
Q45.5625 -1.42188 35.5938 -1.42188
Q29.5938 -1.42188 25.2656 0.953125
Q20.9531 3.32812 18.1094 8.20312
L18.1094 0
L9.07812 0
L9.07812 75.9844
L18.1094 75.9844
z
" id="BitstreamVeraSans-Roman-62"/>
     </defs>
     <g transform="translate(17.859375 175.887260683)rotate(-90.0)scale(0.1 -0.1)">
      <use xlink:href="#BitstreamVeraSans-Roman-78"/>
      <use x="59.1796875" xlink:href="#BitstreamVeraSans-Roman-31"/>
      <use x="122.802734375" xlink:href="#BitstreamVeraSans-Roman-30"/>
      <use x="186.42578125" xlink:href="#BitstreamVeraSans-Roman-30"/>
      <use x="250.048828125" xlink:href="#BitstreamVeraSans-Roman-20"/>
      <use x="281.8359375" xlink:href="#BitstreamVeraSans-Roman-62"/>
      <use x="345.3125" xlink:href="#BitstreamVeraSans-Roman-69"/>
      <use x="373.095703125" xlink:href="#BitstreamVeraSans-Roman-6c"/>
      <use x="400.87890625" xlink:href="#BitstreamVeraSans-Roman-6c"/>
      <use x="428.662109375" xlink:href="#BitstreamVeraSans-Roman-69"/>
      <use x="456.4453125" xlink:href="#BitstreamVeraSans-Roman-6f"/>
      <use x="517.626953125" xlink:href="#BitstreamVeraSans-Roman-6e"/>
      <use x="581.005859375" xlink:href="#BitstreamVeraSans-Roman-20"/>
      <use x="612.79296875" xlink:href="#BitstreamVeraSans-Roman-70"/>
      <use x="676.26953125" xlink:href="#BitstreamVeraSans-Roman-6f"/>
      <use x="737.451171875" xlink:href="#BitstreamVeraSans-Roman-69"/>
      <use x="765.234375" xlink:href="#BitstreamVeraSans-Roman-6e"/>
      <use x="828.61328125" xlink:href="#BitstreamVeraSans-Roman-74"/>
      <use x="867.822265625" xlink:href="#BitstreamVeraSans-Roman-73"/>
     </g>
    </g>
    <g id="text_18">
     <!-- 1e11 -->
     <g transform="translate(43.621875 18.0)scale(0.1 -0.1)">
      <use xlink:href="#BitstreamVeraSans-Roman-31"/>
      <use x="63.623046875" xlink:href="#BitstreamVeraSans-Roman-65"/>
      <use x="125.146484375" xlink:href="#BitstreamVeraSans-Roman-31"/>
      <use x="188.76953125" xlink:href="#BitstreamVeraSans-Roman-31"/>
     </g>
    </g>
   </g>
  </g>
 </g>
 <defs>
  <clipPath id="p460d2c0303">
   <rect height="218.269833866" width="377.578125" x="43.621875" y="21.0"/>
  </clipPath>
 </defs>
</svg>
